<?xml version="1.0" encoding="iso-8859-1"?>
<!-- Generator: Adobe Illustrator 19.0.0, SVG Export Plug-In . SVG Version: 6.00 Build 0)  -->
<svg version="1.1" id="Capa_1" xmlns="http://www.w3.org/2000/svg" xmlns:xlink="http://www.w3.org/1999/xlink" x="0px" y="0px"
	 viewBox="0 0 402.432 402.432" style="enable-background:new 0 0 402.432 402.432;" xml:space="preserve">
<g>
	<g>
		<path d="M368.896,51.2C337.152,17.408,281.344,0,201.984,0h-1.536C121.6,0,65.28,17.408,33.536,51.2
			C6.4,80.384,8.448,110.592,8.448,111.616v285.696c0,3.072,2.048,5.12,5.12,5.12s5.12-2.048,5.12-5.12v-65.536h365.056v65.536
			c0,3.072,2.048,5.12,5.12,5.12c3.072,0,5.12-2.048,5.12-5.12V112.128C393.984,110.592,396.032,80.384,368.896,51.2z
			 M383.744,321.536H18.688v-43.52h365.056V321.536z M383.744,267.776H18.688v-62.464c13.824-4.608,163.84-53.76,365.056,0V267.776z
			 M57.6,184.32v-48.128c0-6.656,5.12-11.776,11.776-11.776h96.768c6.656,0,11.776,5.12,11.776,11.776v34.304
			C127.232,171.52,85.76,178.176,57.6,184.32z M224.512,170.496v-34.304c0-6.656,5.12-11.776,11.776-11.776h96.768
			c6.656,0,11.776,5.12,11.776,11.776v49.664C301.824,176.64,261.376,172.032,224.512,170.496z M383.744,111.616v83.456
			c-9.728-2.56-18.944-4.608-28.672-7.168v-51.712c0-12.288-9.728-22.016-22.016-22.016h-96.768
			c-12.288,0-22.016,9.728-22.016,22.016v34.304c-8.704,0-17.408-0.512-26.112,0v-33.792c0-12.288-9.728-22.016-22.016-22.016
			H69.376c-12.288,0-22.016,9.728-22.016,22.016v50.688c-13.312,3.072-23.04,6.144-28.672,7.68v-83.456
			c0-0.512-1.536-27.136,22.528-52.736c29.184-31.232,84.48-48.128,160.256-48.128c75.264,0,130.56,16.896,159.744,48.128
			C385.28,83.456,383.744,110.592,383.744,111.616z"/>
	</g>
</g>
<g>
</g>
<g>
</g>
<g>
</g>
<g>
</g>
<g>
</g>
<g>
</g>
<g>
</g>
<g>
</g>
<g>
</g>
<g>
</g>
<g>
</g>
<g>
</g>
<g>
</g>
<g>
</g>
<g>
</g>
</svg>
