<?xml version="1.0" encoding="UTF-8" standalone="no"?>
<!-- Generator: Adobe Illustrator 19.0.0, SVG Export Plug-In . SVG Version: 6.00 Build 0)  -->

<svg
   xmlns:dc="http://purl.org/dc/elements/1.1/"
   xmlns:cc="http://creativecommons.org/ns#"
   xmlns:rdf="http://www.w3.org/1999/02/22-rdf-syntax-ns#"
   xmlns:svg="http://www.w3.org/2000/svg"
   xmlns="http://www.w3.org/2000/svg"
   xmlns:sodipodi="http://sodipodi.sourceforge.net/DTD/sodipodi-0.dtd"
   xmlns:inkscape="http://www.inkscape.org/namespaces/inkscape"
   version="1.1"
   id="Capa_1"
   x="0px"
   y="0px"
   viewBox="0 0 408.273 408.273"
   style="fill: white; enable-background:new 0 0 408.273 408.273;"
   xml:space="preserve"
   inkscape:version="0.91 r13725"
   sodipodi:docname="cake.svg"><metadata
     id="metadata43"><rdf:RDF><cc:Work
         rdf:about=""><dc:format>image/svg+xml</dc:format><dc:type
           rdf:resource="http://purl.org/dc/dcmitype/StillImage" /></cc:Work></rdf:RDF></metadata><defs
     id="defs41" /><sodipodi:namedview
     pagecolor="#ffffff"
     bordercolor="#666666"
     borderopacity="1"
     objecttolerance="10"
     gridtolerance="10"
     guidetolerance="10"
     inkscape:pageopacity="0"
     inkscape:pageshadow="2"
     inkscape:window-width="699"
     inkscape:window-height="480"
     id="namedview39"
     showgrid="false"
     inkscape:zoom="0.57804458"
     inkscape:cx="207.42674"
     inkscape:cy="204.13651"
     inkscape:window-x="0"
     inkscape:window-y="23"
     inkscape:window-maximized="0"
     inkscape:current-layer="Capa_1" /><g
     id="g3"
     style="fill:#3e5c61;fill-opacity:1"><g
       id="g5"
       style="fill:#3e5c61;fill-opacity:1"><path
         d="M346.473,370.897h-7.68V211.153c0-3.072-2.048-5.12-5.12-5.12h-13.824V99.025c0-3.072-2.048-5.12-5.12-5.12h-60.416    V57.041c6.656-3.584,22.528-13.312,26.112-29.696c2.56-12.8-4.096-23.04-12.288-26.112c-6.656-2.56-13.312-1.024-18.432,3.584    c-5.12-4.608-11.776-6.144-18.432-3.584c-8.192,3.072-15.36,13.312-12.288,26.112c3.584,16.384,19.456,26.112,26.112,29.696    v36.864h-81.408V57.041c6.656-3.584,22.528-13.312,26.112-29.696c2.56-12.8-4.096-23.04-12.288-26.112    c-6.656-2.56-13.312-1.024-18.432,3.584c-5.12-4.608-11.776-6.144-18.432-3.584c-8.192,3.072-15.36,13.312-12.288,26.112    c3.584,16.384,19.456,26.112,26.112,29.696v36.864H93.545c-3.072,0-5.12,2.048-5.12,5.12v107.008H74.601    c-3.072,0-5.12,2.048-5.12,5.12v159.744h-7.68c-8.192,0-14.848,6.656-14.848,14.848v7.68c0,8.192,6.656,14.848,14.848,14.848    h284.672c8.192,0,14.848-6.656,14.848-14.848v-7.68C361.321,377.553,354.665,370.897,346.473,370.897z M228.201,24.785    c-1.536-7.68,2.048-12.8,6.144-14.336c1.024-0.512,2.048-0.512,2.56-0.512c3.072,0,5.632,2.048,7.68,5.632    c1.024,1.536,2.56,2.56,4.608,2.56s3.584-1.024,4.608-2.56c2.56-4.608,6.656-6.656,10.24-5.12    c4.096,1.536,7.68,6.656,6.144,14.336c-2.56,12.288-15.872,20.48-20.992,23.04C244.073,45.265,230.761,37.073,228.201,24.785z     M137.577,24.785c-1.536-7.68,2.048-12.8,6.144-14.336c1.024-0.512,2.048-0.512,2.56-0.512c3.072,0,5.632,2.048,7.68,5.632    c1.024,1.536,2.56,2.56,4.608,2.56c2.048,0,3.584-1.024,4.608-2.56c2.56-4.608,6.656-6.656,10.24-5.12    c4.096,1.536,7.68,6.656,6.144,14.336c-2.56,12.288-15.872,20.48-20.992,23.04C153.449,45.265,140.137,37.073,137.577,24.785z     M97.129,104.145h211.968v39.424c-10.24,0.512-15.36,5.632-19.968,9.728c-4.096,4.096-7.68,7.168-14.336,7.168    s-10.24-3.072-14.336-7.168c-4.608-4.608-10.24-9.728-21.504-9.728c-10.752,0-16.896,5.632-21.504,9.728    c-4.096,4.096-7.168,7.168-14.336,7.168c-6.656,0-10.24-3.072-14.336-7.168c-4.608-4.608-10.24-9.728-21.504-9.728    c-10.752,0-16.896,5.632-21.504,9.728c-4.096,4.096-7.168,7.168-14.336,7.168c-6.656,0-10.24-3.072-14.336-7.168    c-4.608-4.096-9.728-9.216-19.968-9.728V104.145z M310.633,153.809v52.224H98.665v-52.224c5.632,0.512,9.216,3.584,12.8,7.168    c4.608,4.608,10.24,9.728,21.504,9.728c10.752,0,16.896-5.632,21.504-9.728c4.096-4.096,7.168-7.168,14.336-7.168    c6.656,0,10.24,3.072,14.336,7.168c4.608,4.608,10.24,9.728,21.504,9.728c10.752,0,16.896-5.632,21.504-9.728    c4.096-4.096,7.168-7.168,14.336-7.168c6.656,0,10.24,3.072,14.336,7.168c4.608,4.608,10.24,9.728,21.504,9.728    c10.752,0,16.896-5.632,21.504-9.728C301.929,157.393,305.001,154.321,310.633,153.809z M79.209,216.273h248.832v64.512    c-11.776,0.512-17.92,6.144-23.04,11.264c-5.12,4.608-9.216,8.704-17.408,8.704c-8.192,0-12.288-3.584-17.408-8.704    c-5.632-5.632-11.776-11.264-24.576-11.264c-12.288,0-18.944,6.144-24.576,11.264c-5.12,4.608-9.216,8.704-17.408,8.704    s-12.288-3.584-17.408-8.704c-5.632-5.632-11.776-11.264-24.576-11.264c-12.288,0-18.944,6.144-24.576,11.264    c-5.12,4.608-9.216,8.704-17.408,8.704s-12.288-3.584-17.408-8.704c-5.632-5.12-11.776-10.752-23.04-11.264V216.273z     M328.553,290.513v80.384H79.721v-80.384c7.68,0.512,11.264,4.096,15.872,8.704c5.632,5.632,11.776,11.264,24.576,11.264    c12.288,0,18.944-6.144,24.576-11.264c5.12-4.608,9.216-8.704,17.408-8.704c8.192,0,12.288,3.584,17.408,8.704    c5.632,5.632,11.776,11.264,24.576,11.264c12.288,0,18.944-6.144,24.576-11.264c5.12-4.608,9.216-8.704,17.408-8.704    c8.192,0,12.288,3.584,17.408,8.704c5.632,5.632,11.776,11.264,24.576,11.264c12.288,0,18.944-6.144,24.576-11.264    C317.289,294.609,321.385,291.025,328.553,290.513z M346.473,398.033H61.289c-2.56,0-4.608-2.048-4.608-4.608v-7.68    c0-2.56,2.048-4.608,4.608-4.608h284.672c2.56,0,4.608,2.048,4.608,4.608v7.68h0.512    C351.081,395.985,349.033,398.033,346.473,398.033z"
         id="path7"
         style="fill:#3e5c61;fill-opacity:1" /></g></g><g
     id="g9" /><g
     id="g11" /><g
     id="g13" /><g
     id="g15" /><g
     id="g17" /><g
     id="g19" /><g
     id="g21" /><g
     id="g23" /><g
     id="g25" /><g
     id="g27" /><g
     id="g29" /><g
     id="g31" /><g
     id="g33" /><g
     id="g35" /><g
     id="g37" /></svg>