<?xml version="1.0" encoding="UTF-8"?>
<svg width="529px" height="166px" viewBox="0 0 529 166" version="1.1" xmlns="http://www.w3.org/2000/svg" xmlns:xlink="http://www.w3.org/1999/xlink">
    <!-- Generator: Sketch 43.1 (39012) - http://www.bohemiancoding.com/sketch -->
    <title>t</title>
    <desc>Created with Sketch.</desc>
    <defs></defs>
    <g id="Page-1" stroke="none" stroke-width="1" fill="none" fill-rule="evenodd">
        <g id="t" fill="#FFFFFF">
            <path d="M30.21,33.08 C28.6499922,35.6000126 27.2550062,38.6299823 26.025,42.17 C24.7949939,45.7100177 23.7600042,49.5199796 22.92,53.6 C25.2000114,55.3400087 27.7199862,56.7049951 30.48,57.695 C33.2400138,58.685005 36.2399838,59.1200006 39.48,59 C41.1600084,58.9399997 42.704993,58.7600015 44.115,58.46 C45.5250071,58.1599985 47.0099922,57.6800033 48.57,57.02 C49.8300063,56.4799973 51.1049936,55.6550056 52.395,54.545 C53.6850065,53.4349945 54.8999943,52.1150077 56.04,50.585 C57.1800057,49.0549924 58.2149954,47.3300096 59.145,45.41 C60.0750047,43.4899904 60.7799976,41.4500108 61.26,39.29 C61.8000027,37.0699889 62.0849999,34.7450122 62.115,32.315 C62.1450002,29.8849879 61.8150035,27.6650101 61.125,25.655 C60.4349966,23.64499 59.2800081,21.9350071 57.66,20.525 C56.0399919,19.114993 53.8500138,18.2600015 51.09,17.96 C49.6499928,17.8399994 47.9700096,18.2149957 46.05,19.085 C44.1299904,19.9550044 42.1800099,21.1249927 40.2,22.595 C38.2199901,24.0650074 36.3450089,25.7299907 34.575,27.59 C32.8049912,29.4500093 31.3500057,31.279991 30.21,33.08 Z M79.98,93.83 C80.4600024,94.1300015 81.0449966,93.9200036 81.735,93.2 C82.4250035,92.4799964 83.1449963,91.4300069 83.895,90.05 C84.6450038,88.6699931 85.424996,87.0350095 86.235,85.145 C87.0450041,83.2549906 87.8249963,81.3200099 88.575,79.34 C89.3250038,77.3599901 90.0449966,75.4100096 90.735,73.49 C91.4250035,71.5699904 92.0099976,69.8600075 92.49,68.36 C92.7300012,66.9199928 92.6700018,65.8550035 92.31,65.165 C91.9499982,64.4749966 91.4550032,64.0550008 90.825,63.905 C90.1949969,63.7549993 89.5200036,63.8449984 88.8,64.175 C88.0799964,64.5050017 87.4800024,64.9399973 87,65.48 C86.1599958,66.4400048 85.3800036,67.6399928 84.66,69.08 C83.9399964,70.5200072 83.280003,72.0349921 82.68,73.625 C82.079997,75.215008 81.5550023,76.7599925 81.105,78.26 C80.6549978,79.7600075 80.3100012,81.0199949 80.07,82.04 C79.8899991,82.8200039 79.6950011,83.809994 79.485,85.01 C79.274999,86.210006 79.1250005,87.409994 79.035,88.61 C78.9449996,89.810006 78.9599994,90.9049951 79.08,91.895 C79.2000006,92.885005 79.4999976,93.5299985 79.98,93.83 Z M147.12,51.17 C147.06,50.4499964 147.06,49.8200027 147.12,49.28 C147.18,48.7399973 147.539997,48.47 148.2,48.47 C148.680002,48.47 149.204997,48.5449993 149.775,48.695 C150.345003,48.8450008 150.869998,49.0399988 151.35,49.28 C151.530001,49.4000006 151.679999,49.6549981 151.8,50.045 C151.920001,50.435002 152.01,50.8999973 152.07,51.44 C152.13,51.9800027 152.175,52.5649969 152.205,53.195 C152.235,53.8250032 152.25,54.3799976 152.25,54.86 C152.31,55.5800036 152.010003,55.8050014 151.35,55.535 C150.689997,55.2649987 149.820005,55.0700006 148.74,54.95 C148.079997,54.8299994 147.660001,54.4400033 147.48,53.78 C147.299999,53.1199967 147.18,52.2500054 147.12,51.17 Z M170.25,93.83 C170.730002,94.1300015 171.314997,93.9200036 172.005,93.2 C172.695003,92.4799964 173.414996,91.4300069 174.165,90.05 C174.915004,88.6699931 175.694996,87.0350095 176.505,85.145 C177.315004,83.2549906 178.094996,81.3200099 178.845,79.34 C179.595004,77.3599901 180.314997,75.4100096 181.005,73.49 C181.695003,71.5699904 182.279998,69.8600075 182.76,68.36 C183.000001,66.9199928 182.940002,65.8550035 182.58,65.165 C182.219998,64.4749966 181.725003,64.0550008 181.095,63.905 C180.464997,63.7549993 179.790004,63.8449984 179.07,64.175 C178.349996,64.5050017 177.750002,64.9399973 177.27,65.48 C176.429996,66.4400048 175.650004,67.6399928 174.93,69.08 C174.209996,70.5200072 173.550003,72.0349921 172.95,73.625 C172.349997,75.215008 171.825002,76.7599925 171.375,78.26 C170.924998,79.7600075 170.580001,81.0199949 170.34,82.04 C170.159999,82.8200039 169.965001,83.809994 169.755,85.01 C169.544999,86.210006 169.395,87.409994 169.305,88.61 C169.215,89.810006 169.229999,90.9049951 169.35,91.895 C169.470001,92.885005 169.769998,93.5299985 170.25,93.83 Z M336.12,146.84 C338.460012,144.259987 340.60499,141.365016 342.555,138.155 C344.50501,134.944984 346.289992,131.495018 347.91,127.805 C349.530008,124.114982 351.014993,120.23002 352.365,116.15 C353.715007,112.06998 354.929995,107.900021 356.01,103.64 C351.689978,105.020007 347.310022,106.339994 342.87,107.6 C338.429978,108.860006 334.140021,110.254992 330,111.785 C325.859979,113.315008 322.005018,115.05499 318.435,117.005 C314.864982,118.95501 311.775013,121.279986 309.165,123.98 C306.554987,126.680013 304.545007,129.859982 303.135,133.52 C301.724993,137.180018 301.139999,141.469975 301.38,146.39 C301.44,148.010008 301.754997,149.524993 302.325,150.935 C302.895003,152.345007 303.659995,153.589995 304.62,154.67 C305.580005,155.750005 306.749993,156.604997 308.13,157.235 C309.510007,157.865003 311.099991,158.15 312.9,158.09 C317.580023,158.03 321.824981,157.01001 325.635,155.03 C329.445019,153.04999 332.939984,150.320017 336.12,146.84 Z M386.662737,87.3070504 C386.783516,88.4465896 386.945936,89.4959011 387.15,90.455 C387.450002,91.865007 387.869997,92.9299964 388.41,93.65 C389.670006,95.3900087 391.094992,96.4099985 392.685,96.71 C394.275008,97.0100015 395.819993,96.8000036 397.32,96.08 C398.820008,95.3599964 400.169994,94.2350076 401.37,92.705 C402.570006,91.1749923 403.439997,89.3900102 403.98,87.35 L404.25,86 C405.690007,86.4800024 407.189992,86.7050001 408.75,86.675 C410.310008,86.6449998 411.839993,86.2100042 413.34,85.37 C414.840008,84.5299958 416.264993,83.2250088 417.615,81.455 C418.965007,79.6849911 420.149995,77.3600144 421.17,74.48 C421.470002,73.5799955 421.769999,72.5900054 422.07,71.51 C422.370002,70.4299946 422.579999,69.4400045 422.7,68.54 C422.76,67.8799967 422.475003,67.5200003 421.845,67.46 C421.214997,67.3999997 420.840001,67.6999967 420.72,68.36 C420.599999,69.2000042 420.375002,70.0549956 420.045,70.925 C419.714998,71.7950043 419.460001,72.6499958 419.28,73.49 C418.739997,75.4700099 417.945005,77.2399922 416.895,78.8 C415.844995,80.3600078 414.660007,81.6049953 413.34,82.535 C412.019993,83.4650046 410.610008,84.0649986 409.11,84.335 C407.609993,84.6050013 406.170007,84.440003 404.79,83.84 C405.630004,79.8199799 406.169999,75.6650214 406.41,71.375 C406.650001,67.0849785 406.470003,62.9600198 405.87,59 C405.629999,57.5599928 405.270002,56.0150082 404.79,54.365 C404.309998,52.7149917 403.635004,51.2150067 402.765,49.865 C401.894996,48.5149932 400.815006,47.4650037 399.525,46.715 C398.234994,45.9649962 396.660009,45.7699982 394.8,46.13 C393.599994,46.3700012 392.655003,46.9249956 391.965,47.795 C391.274997,48.6650043 390.750002,49.6699943 390.39,50.81 C390.029998,51.9500057 389.805,53.1349938 389.715,54.365 C389.625,55.5950061 389.58,56.6599955 389.58,57.56 C389.64,58.9400069 389.789999,60.4849914 390.03,62.195 C390.270001,63.9050085 390.599998,65.6299913 391.02,67.37 C390.119996,66.7099967 389.250004,66.2150016 388.41,65.885 C387.569996,65.5549983 387.12,65.5699982 387.06,65.93 C386.939999,66.7100039 386.835,67.8349926 386.745,69.305 C386.655,70.7750073 386.565,72.4249908 386.475,74.255 C386.385,76.0850091 386.34,77.9899901 386.34,79.97 C386.34,81.4844519 386.375101,82.9462345 386.445305,84.3553731 C384.880454,86.5930201 382.985359,88.5512202 380.76,90.23 C377.339983,92.8100129 373.410022,95.0599904 368.97,96.98 C370.230006,90.8599694 371.234996,84.7550304 371.985,78.665 C372.735004,72.5749695 373.289998,66.8000273 373.65,61.34 C374.010002,55.8799727 374.22,50.855023 374.28,46.265 C374.34,41.674977 374.34,37.7600162 374.28,34.52 C374.159999,29.9599772 373.680004,25.7600192 372.84,21.92 C371.999996,18.0799808 370.755008,14.7500141 369.105,11.93 C367.454992,9.1099859 365.370013,6.90500795 362.85,5.315 C360.329987,3.72499205 357.330017,2.93 353.85,2.93 C350.909985,2.9900003 348.045014,3.90499115 345.255,5.675 C342.464986,7.44500885 339.795013,9.81498515 337.245,12.785 C334.694987,15.7550149 332.280011,19.2049803 330,23.135 C327.719989,27.0650197 325.650009,31.1899784 323.79,35.51 C321.929991,39.8300216 320.310007,44.2249776 318.93,48.695 C317.549993,53.1650224 316.440004,57.4399796 315.6,61.52 C314.759996,65.6000204 314.250001,69.3499829 314.07,72.77 C313.889999,76.1900171 314.069997,79.0099889 314.61,81.23 C315.150003,83.3300105 315.929995,85.1149927 316.95,86.585 C317.970005,88.0550073 319.154993,89.2399955 320.505,90.14 C321.855007,91.0400045 323.354992,91.6849981 325.005,92.075 C326.655008,92.465002 328.379991,92.6300003 330.18,92.57 C332.640012,92.5099997 335.009989,92.0900039 337.29,91.31 C339.570011,90.5299961 341.759989,89.5550059 343.86,88.385 C345.96001,87.2149941 347.954991,85.8650076 349.845,84.335 C351.735009,82.8049923 353.519992,81.2300081 355.2,79.61 C355.620002,79.1299976 355.620002,78.6800021 355.2,78.26 C354.779998,77.8399979 354.330002,77.8399979 353.85,78.26 C352.229992,79.8200078 350.505009,81.3049929 348.675,82.715 C346.844991,84.125007 344.94001,85.3999943 342.96,86.54 C340.97999,87.6800057 338.910011,88.5949965 336.75,89.285 C334.589989,89.9750035 332.340012,90.3799994 330,90.5 C326.519983,90.6800009 323.625012,89.9450083 321.315,88.295 C319.004988,86.6449918 317.430004,84.1100171 316.59,80.69 C315.989997,78.5899895 315.779999,75.8900165 315.96,72.59 C316.140001,69.2899835 316.619996,65.6750197 317.4,61.745 C318.180004,57.8149803 319.244993,53.6750217 320.595,49.325 C321.945007,44.9749783 323.519991,40.700021 325.32,36.5 C327.120009,32.299979 329.099989,28.2950191 331.26,24.485 C333.420011,20.6749809 335.729988,17.3150146 338.19,14.405 C340.650012,11.4949855 343.199987,9.18500855 345.84,7.475 C348.480013,5.76499145 351.149987,4.91 353.85,4.91 C355.89001,4.91 357.599993,5.52499385 358.98,6.755 C360.360007,7.98500615 361.469996,9.57499025 362.31,11.525 C363.150004,13.4750097 363.764998,15.6649879 364.155,18.095 C364.545002,20.5250122 364.814999,22.9249882 364.965,25.295 C365.115001,27.6650119 365.16,29.8699898 365.1,31.91 C365.04,33.9500102 364.98,35.5999937 364.92,36.86 C364.739999,40.2800171 364.485002,44.4199757 364.155,49.28 C363.824998,54.1400243 363.330003,59.4049717 362.67,65.075 C362.009997,70.7450283 361.185005,76.6849689 360.195,82.895 C359.204995,89.1050311 357.960007,95.2999691 356.46,101.48 C352.079978,102.860007 347.595023,104.164994 343.005,105.395 C338.414977,106.625006 333.990021,108.019992 329.73,109.58 C325.469979,111.140008 321.465019,112.93999 317.715,114.98 C313.964981,117.02001 310.710014,119.479986 307.95,122.36 C305.189986,125.240014 303.045008,128.64498 301.515,132.575 C299.984992,136.50502 299.309999,141.139973 299.49,146.48 C299.55,148.220009 299.879997,149.944991 300.48,151.655 C301.080003,153.365009 301.949994,154.894993 303.09,156.245 C304.230006,157.595007 305.609992,158.719995 307.23,159.62 C308.850008,160.520004 310.739989,161 312.9,161.06 C315.420013,161.180001 317.999987,161.21 320.64,161.15 C323.280013,161.09 325.979986,160.700004 328.74,159.98 C331.500014,159.259996 334.319986,158.045009 337.2,156.335 C340.080014,154.624991 343.019985,152.180016 346.02,149 C348.840014,145.939985 351.404988,142.520019 353.715,138.74 C356.025012,134.959981 358.094991,130.925021 359.925,126.635 C361.755009,122.344979 363.374993,117.890023 364.785,113.27 C366.195007,108.649977 367.439995,103.970024 368.52,99.23 C373.380024,97.1899898 377.744981,94.775014 381.615,91.985 C383.52865,90.6053915 385.211226,89.0460792 386.662737,87.3070504 Z M403.89,59.27 C403.529998,57.1099892 403.005003,55.130009 402.315,53.33 C401.624997,51.529991 400.890004,50.3150032 400.11,49.685 C399.329996,49.0549969 398.565004,49.2349951 397.815,50.225 C397.064996,51.215005 396.480002,53.3899832 396.06,56.75 C395.879999,58.3100078 395.82,60.09499 395.88,62.105 C395.94,64.1150101 396.134998,66.12499 396.465,68.135 C396.795002,70.1450101 397.244997,72.1099904 397.815,74.03 C398.385003,75.9500096 399.059996,77.5999931 399.84,78.98 C400.320002,79.8200042 400.829997,80.5549969 401.37,81.185 C401.910003,81.8150032 402.479997,82.3699976 403.08,82.85 C403.920004,79.0699811 404.414999,75.1400204 404.565,71.06 C404.715001,66.9799796 404.490003,63.0500189 403.89,59.27 Z M395.25,93.47 C396.270005,93.6500009 397.169996,93.5000024 397.95,93.02 C398.730004,92.5399976 399.419997,91.8800042 400.02,91.04 C400.620003,90.1999958 401.129998,89.2550053 401.55,88.205 C401.970002,87.1549948 402.299999,86.1800045 402.54,85.28 C401.159993,84.6199967 399.900006,83.7800051 398.76,82.76 C397.619994,81.7399949 396.660004,80.6600057 395.88,79.52 C394.799995,78.0199925 393.840004,76.1300114 393,73.85 C392.819999,75.5900087 392.715,77.5549891 392.685,79.745 C392.655,81.935011 392.714999,84.03499 392.865,86.045 C393.015001,88.0550101 393.284998,89.764993 393.675,91.175 C394.065002,92.5850071 394.589997,93.3499994 395.25,93.47 Z M414.24,58.91 C414.540002,60.6500087 415.334994,62.1349939 416.625,63.365 C417.915006,64.5950062 419.369992,65.6899952 420.99,66.65 C421.230001,65.6899952 421.439999,64.6550055 421.62,63.545 C421.800001,62.4349945 421.905,61.3250056 421.935,60.215 C421.965,59.1049945 421.890001,58.0250053 421.71,56.975 C421.529999,55.9249948 421.170003,54.9500045 420.63,54.05 C420.089997,53.1499955 419.415004,52.6550005 418.605,52.565 C417.794996,52.4749996 417.030004,52.6699976 416.31,53.15 C415.589996,53.6300024 415.005002,54.3799949 414.555,55.4 C414.104998,56.4200051 413.999999,57.5899934 414.24,58.91 Z M431.79,144.68 C434.190012,143.539994 436.454989,141.860011 438.585,139.64 C440.715011,137.419989 442.694991,134.840015 444.525,131.9 C446.355009,128.959985 448.049992,125.750017 449.61,122.27 C451.170008,118.789983 452.579994,115.250018 453.84,111.65 C451.259987,112.910006 448.725012,114.124994 446.235,115.295 C443.744988,116.465006 441.360011,117.619994 439.08,118.76 C437.639993,119.420003 435.88501,120.214995 433.815,121.145 C431.74499,122.075005 429.585011,123.094994 427.335,124.205 C425.084989,125.315006 422.895011,126.529993 420.765,127.85 C418.634989,129.170007 416.775008,130.549993 415.185,131.99 C413.594992,133.430007 412.425004,134.929992 411.675,136.49 C410.924996,138.050008 410.849997,139.669992 411.45,141.35 C412.050003,143.27001 413.159992,144.664996 414.78,145.535 C416.400008,146.405004 418.19999,146.899999 420.18,147.02 C422.16001,147.140001 424.18499,146.975002 426.255,146.525 C428.32501,146.074998 430.169992,145.460004 431.79,144.68 Z M489.283549,84.3135457 C487.907301,87.6050722 485.962797,90.5072027 483.45,93.02 C481.109988,95.3600117 478.245017,97.6549888 474.855,99.905 C471.464983,102.155011 467.82002,104.329989 463.92,106.43 C462.479993,111.290024 460.77001,115.939978 458.79,120.38 C456.80999,124.820022 454.515013,128.854982 451.905,132.485 C449.294987,136.115018 446.385016,139.204987 443.175,141.755 C439.964984,144.305013 436.38002,146.119995 432.42,147.2 C430.559991,147.740003 428.385012,148.144999 425.895,148.415 C423.404988,148.685001 420.990012,148.655002 418.65,148.325 C416.309988,147.994998 414.240009,147.290005 412.44,146.21 C410.639991,145.129995 409.500002,143.450011 409.02,141.17 C408.599998,139.309991 408.824996,137.525009 409.695,135.815 C410.565004,134.104991 411.809992,132.485008 413.43,130.955 C415.050008,129.424992 416.969989,127.985007 419.19,126.635 C421.410011,125.284993 423.659989,124.040006 425.94,122.9 C428.220011,121.759994 430.454989,120.710005 432.645,119.75 C434.835011,118.789995 436.709992,117.920004 438.27,117.14 L454.65,109.22 C455.730005,105.799983 456.689996,102.470016 457.53,99.23 C458.370004,95.9899838 459.119997,92.9000147 459.78,89.96 C460.200002,88.0399904 460.634998,85.8650121 461.085,83.435 C461.535002,81.0049878 461.984998,78.5150127 462.435,75.965 C462.885002,73.4149872 463.319998,70.8650128 463.74,68.315 C464.160002,65.7649873 464.519999,63.4100108 464.82,61.25 C465.000001,59.8699931 464.970001,59.284999 464.73,59.495 C464.489999,59.705001 464.115003,60.3499946 463.605,61.43 C463.094997,62.5100054 462.525003,63.8899916 461.895,65.57 C461.264997,67.2500084 460.665003,68.8999919 460.095,70.52 C459.524997,72.1400081 459.030002,73.549994 458.61,74.75 C458.189998,75.950006 457.95,76.6399991 457.89,76.82 C457.049996,78.6800093 456.060006,80.0599955 454.92,80.96 C453.779994,81.8600045 452.370008,82.1600015 450.69,81.86 C449.991503,81.726953 449.366767,81.5017138 448.815787,81.1842794 C448.608027,82.0179572 448.392764,82.8431972 448.17,83.66 C446.909994,88.2800231 445.350009,92.4649812 443.49,96.215 C441.629991,99.9650187 439.425013,103.189987 436.875,105.89 C434.324987,108.590013 431.340017,110.629993 427.92,112.01 C426.479993,112.610003 425.130006,112.685002 423.87,112.235 C422.609994,111.784998 421.620004,110.690009 420.9,108.95 C420.599999,107.809994 420.524999,106.550007 420.675,105.17 C420.825001,103.789993 421.094998,102.425007 421.485,101.075 C421.875002,99.7249932 422.324997,98.4200063 422.835,97.16 C423.345003,95.8999937 423.839998,94.7600051 424.32,93.74 C425.040004,92.2399925 425.789996,90.7700072 426.57,89.33 C427.350004,87.8899928 428.039997,86.4500072 428.64,85.01 C429.240003,83.5699928 429.689999,82.1150074 429.99,80.645 C430.290002,79.1749927 430.320001,77.6300081 430.08,76.01 C429.959999,75.2299961 429.750002,74.5700027 429.45,74.03 C429.149999,73.4899973 428.775002,73.0400018 428.325,72.68 C427.874998,72.3199982 427.365003,71.9900015 426.795,71.69 C426.224997,71.3899985 425.610003,71.0900015 424.95,70.79 C423.449993,70.0699964 421.905008,69.2600045 420.315,68.36 C418.724992,67.4599955 417.285006,66.4250059 415.995,65.255 C414.704994,64.0849942 413.700004,62.7350077 412.98,61.205 C412.259996,59.6749924 411.989999,57.9200099 412.17,55.94 C412.290001,54.7999943 412.769996,53.735005 413.61,52.745 C414.450004,51.7549951 415.409995,51.0500021 416.49,50.63 C417.570005,50.2099979 418.664994,50.1499985 419.775,50.45 C420.885006,50.7500015 421.769997,51.6199928 422.43,53.06 C423.510005,55.3400114 424.005,57.7249876 423.915,60.215 C423.825,62.7050125 423.450003,65.149988 422.79,67.55 C423.690004,68.0300024 424.589995,68.4799979 425.49,68.9 C426.390005,69.3200021 427.229996,69.7099982 428.01,70.07 C429.030005,70.6100027 430.154994,71.1949969 431.385,71.825 C432.615006,72.4550032 433.529997,73.3399943 434.13,74.48 C434.730003,75.9200072 435.149999,77.1799946 435.39,78.26 C435.630001,79.3400054 435.705,80.4049948 435.615,81.455 C435.525,82.5050053 435.285002,83.5999943 434.895,84.74 C434.504998,85.8800057 434.010003,87.1999925 433.41,88.7 C433.289999,89.0600018 432.975003,89.6899955 432.465,90.59 C431.954997,91.4900045 431.400003,92.5249941 430.8,93.695 C430.199997,94.8650059 429.585003,96.1399931 428.955,97.52 C428.324997,98.9000069 427.785002,100.234994 427.335,101.525 C426.884998,102.815006 426.615,103.999995 426.525,105.08 C426.435,106.160005 426.599998,107.029997 427.02,107.69 C427.560003,108.530004 428.429994,108.785002 429.63,108.455 C430.830006,108.124998 432.164993,107.285007 433.635,105.935 C435.105007,104.584993 436.649992,102.755012 438.27,100.445 C439.890008,98.1349885 441.419993,95.4200156 442.86,92.3 C444.300007,89.1799844 445.574994,85.6700195 446.685,81.77 C446.872214,81.1122211 447.050467,80.4450567 447.219759,79.7685062 C446.631194,79.0458965 446.152944,78.2430664 445.785,77.36 C445.334998,76.2799946 445.050001,75.2150053 444.93,74.165 C444.809999,73.1149947 444.75,72.2300036 444.75,71.51 C444.81,70.3699943 445.094997,68.7800102 445.605,66.74 C446.115003,64.6999898 446.834995,62.67501 447.765,60.665 C448.695005,58.65499 449.789994,56.8700078 451.05,55.31 C452.310006,53.7499922 453.719992,52.8800009 455.28,52.7 C455.640002,52.6399997 456.164997,52.5950002 456.855,52.565 C457.545003,52.5349999 458.294996,52.5349999 459.105,52.565 C459.915004,52.5950002 460.664997,52.6249998 461.355,52.655 C462.045003,52.6850002 462.569998,52.7 462.93,52.7 C463.530003,52.8800009 463.83,53.2249975 463.83,53.735 C463.83,54.2450025 463.500003,54.5599994 462.84,54.68 C462.299997,54.68 461.820002,54.5750011 461.4,54.365 C460.979998,54.154999 460.530002,54.2299982 460.05,54.59 C459.509997,55.0700024 458.820004,56.0299928 457.98,57.47 C457.139996,58.9100072 456.315004,60.4999913 455.505,62.24 C454.694996,63.9800087 453.975003,65.7049915 453.345,67.415 C452.714997,69.1250086 452.340001,70.4599952 452.22,71.42 C452.16,71.7800018 452.025001,72.4099955 451.815,73.31 C451.604999,74.2100045 451.47,75.1399952 451.41,76.1 C451.35,77.0600048 451.409999,77.8699967 451.59,78.53 C451.770001,79.1900033 452.189997,79.4600006 452.85,79.34 C453.450003,79.2199994 454.019997,78.860003 454.56,78.26 C455.100003,77.659997 455.564998,76.9700039 455.955,76.19 C456.345002,75.4099961 456.689999,74.6300039 456.99,73.85 C457.290002,73.0699961 457.529999,72.4400024 457.71,71.96 C458.130002,70.6999937 458.684997,69.0500102 459.375,67.01 C460.065003,64.9699898 460.814996,62.8700108 461.625,60.71 C462.435004,58.5499892 463.304995,56.5100096 464.235,54.59 C465.165005,52.6699904 466.109995,51.2300048 467.07,50.27 C467.13,50.2099997 467.429997,50.18 467.97,50.18 C468.510003,50.18 469.124997,50.2249996 469.815,50.315 C470.505003,50.4050005 471.149997,50.5549989 471.75,50.765 C472.350003,50.9750011 472.709999,51.2299985 472.83,51.53 C472.950001,52.130003 472.98,52.9549948 472.92,54.005 C472.86,55.0550052 472.770001,55.879997 472.65,56.48 C472.229998,59.3600144 471.825002,62.4949831 471.435,65.885 C471.044998,69.275017 470.610002,72.7999817 470.13,76.46 C469.649998,80.1200183 469.065003,83.8699808 468.375,87.71 C467.684997,91.5500192 466.860005,95.3899808 465.9,99.23 C465.719999,100.010004 465.525001,100.789996 465.315,101.57 C465.104999,102.350004 464.880001,103.129996 464.64,103.91 C467.940017,102.049991 471.014986,100.16001 473.865,98.24 C476.715014,96.3199904 479.15999,94.4000096 481.2,92.48 C482.820008,90.8599919 484.199994,89.1200093 485.34,87.26 C486.480006,85.3999907 487.439996,83.4350103 488.22,81.365 C488.510398,80.5943285 488.784161,79.8091074 489.041291,79.0093334 C489.078846,77.2641441 489.210081,75.5293783 489.435,73.805 C489.705001,71.7349897 490.079998,69.800009 490.56,68 C490.740001,67.2199961 491.024998,66.3650047 491.415,65.435 C491.805002,64.5049954 492.284997,63.6200042 492.855,62.78 C493.425003,61.9399958 494.084996,61.2050032 494.835,60.575 C495.585004,59.9449969 496.439995,59.5100012 497.4,59.27 C499.32001,58.7899976 500.969993,58.6399991 502.35,58.82 C503.730007,59.0000009 504.899995,59.4199967 505.86,60.08 C506.820005,60.7400033 507.569997,61.5799949 508.11,62.6 C508.650003,63.6200051 509.039999,64.6699946 509.28,65.75 C509.700002,67.8500105 509.580003,70.0399886 508.92,72.32 C507.959995,75.4400156 506.430011,77.7949921 504.33,79.385 C502.22999,80.975008 499.830014,82.2499952 497.13,83.21 C497.250001,84.5300066 497.414999,85.7149948 497.625,86.765 C497.835001,87.8150052 498.029999,88.6099973 498.21,89.15 C499.170005,92.0900147 500.339993,94.1899937 501.72,95.45 C503.100007,96.7100063 504.569992,97.34 506.13,97.34 C507.690008,97.34 509.294992,96.8300051 510.945,95.81 C512.595008,94.7899949 514.139993,93.5150077 515.58,91.985 C517.020007,90.4549924 518.309994,88.7600093 519.45,86.9 C520.590006,85.0399907 521.459997,83.2700084 522.06,81.59 C522.900004,79.2499883 523.529998,76.985011 523.95,74.795 C524.370002,72.6049891 524.819998,70.1900132 525.3,67.55 C525.600002,67.0699976 525.989998,66.8749995 526.47,66.965 C526.950002,67.0550005 527.19,67.399997 527.19,68 C526.709998,70.7000135 526.275002,73.1899886 525.885,75.47 C525.494998,77.7500114 524.820005,80.089988 523.86,82.49 C523.139996,84.4700099 522.195006,86.4499901 521.025,88.43 C519.854994,90.4100099 518.520008,92.2249918 517.02,93.875 C515.519993,95.5250082 513.870009,96.9349942 512.07,98.105 C510.269991,99.2750058 508.38001,100.039998 506.4,100.4 C505.319995,100.580001 504.120007,100.610001 502.8,100.49 C501.479993,100.369999 500.145007,100.010003 498.795,99.41 C497.444993,98.809997 496.125006,97.8950062 494.835,96.665 C493.544994,95.4349938 492.390005,93.7700105 491.37,91.67 C490.529996,90.0499919 489.930002,88.2350101 489.57,86.225 C489.456681,85.5923049 489.361198,84.9551541 489.283549,84.3135457 Z M162.688742,89.1003525 C160.960537,90.694502 158.710978,91.521043 155.94,91.58 C154.799994,91.6400003 153.555007,91.5650011 152.205,91.355 C150.854993,91.144999 149.550006,90.740003 148.29,90.14 C147.029994,89.539997 145.920005,88.7000054 144.96,87.62 C144.86762,87.5160727 144.778018,87.4090899 144.691195,87.2990514 C144.503061,88.0065915 144.307663,88.7135741 144.105,89.42 C143.054995,93.0800183 141.765008,96.514984 140.235,99.725 C138.704992,102.935016 136.800011,105.55999 134.52,107.6 C133.259994,108.740006 131.880008,109.774995 130.38,110.705 C128.879993,111.635005 127.335008,112.159999 125.745,112.28 C124.154992,112.400001 122.565008,111.935005 120.975,110.885 C119.384992,109.834995 117.930007,107.900014 116.61,105.08 C115.289993,102.319986 114.689999,98.0900285 114.81,92.39 C114.820756,91.8790937 114.836332,91.3597526 114.856729,90.8319765 C113.871771,92.8809667 112.821199,94.8702998 111.705,96.8 C109.934991,99.8600153 108.120009,102.34999 106.26,104.27 C105.659997,104.930003 104.775006,105.275 103.605,105.305 C102.434994,105.335 101.235006,105.170002 100.005,104.81 C98.7749939,104.449998 97.665005,103.955003 96.675,103.325 C95.6849951,102.694997 95.0400015,102.020004 94.74,101.3 C94.2599976,99.4399907 93.9300009,97.6400087 93.75,95.9 C93.5699991,94.1599913 93.4500003,92.4200087 93.39,90.68 C93.3299997,88.9399913 93.3299997,87.170009 93.39,85.37 C93.4500003,83.569991 93.5399994,81.6800099 93.66,79.7 C93.7200003,78.2599928 93.75,77.1950035 93.75,76.505 C93.75,75.8149965 93.6900006,75.4250004 93.57,75.335 C93.4499994,75.2449995 93.2700012,75.4249977 93.03,75.875 C92.7899988,76.3250022 92.4900018,76.9699958 92.13,77.81 C91.2299955,80.0900114 90.2250056,82.6399859 89.115,85.46 C88.0049945,88.2800141 86.6700078,90.9799871 85.11,93.56 C84.8099985,94.0400024 84.360003,94.5649971 83.76,95.135 C83.159997,95.7050028 82.5000036,96.1699982 81.78,96.53 C81.0599964,96.8900018 80.2800042,97.1299994 79.44,97.25 C78.5999958,97.3700006 77.7900039,97.2200021 77.01,96.8 C75.5699928,96.0799964 74.5050035,95.0600066 73.815,93.74 C73.3810246,92.9097862 73.0419901,92.0380455 72.7978932,91.124767 C71.2792344,94.3683625 69.548282,97.5800841 67.605,100.76 C65.2949885,104.540019 62.7150143,107.854986 59.865,110.705 C57.0149858,113.555014 53.9400165,115.744992 50.64,117.275 C47.3399835,118.805008 43.8300186,119.300003 40.11,118.76 C35.8499787,118.159997 32.1000162,116.690012 28.86,114.35 C25.6199838,112.009988 22.8900111,109.085018 20.67,105.575 C18.4499889,102.064982 16.6950065,98.0900222 15.405,93.65 C14.1149936,89.2099778 13.2900018,84.5450244 12.93,79.655 C12.5699982,74.7649756 12.6449975,69.7850253 13.155,64.715 C13.6650026,59.6449747 14.5799934,54.7400237 15.9,50 C13.9199901,47.8399892 12.2400069,45.6800108 10.86,43.52 C9.8999952,42.0799928 9.04500375,40.6100075 8.295,39.11 L6,34.52 C5.9399997,33.919997 6.1499976,33.5300009 6.63,33.35 C7.1100024,33.1699991 7.5299982,33.3199976 7.89,33.8 C9.0300057,36.200012 10.3199928,38.5699883 11.76,40.91 C13.2000072,43.2500117 14.7899913,45.4699895 16.53,47.57 C17.9100069,43.2499784 19.6199898,39.1850191 21.66,35.375 C23.7000102,31.5649809 26.0549867,28.2200144 28.725,25.34 C31.3950134,22.4599856 34.3649837,20.1500087 37.635,18.41 C40.9050164,16.6699913 44.4599808,15.7100009 48.3,15.53 C51.7800174,15.3499991 54.6749885,15.9349933 56.985,17.285 C59.2950116,18.6350068 61.0799937,20.4499886 62.34,22.73 C63.6000063,25.0100114 64.3499988,27.6349852 64.59,30.605 C64.8300012,33.5750149 64.5600039,36.6199844 63.78,39.74 C62.9399958,43.0400165 61.7400078,46.0999859 60.18,48.92 C58.6199922,51.7400141 56.6550119,54.1249903 54.285,56.075 C51.9149882,58.0250097 49.1400159,59.4649953 45.96,60.395 C42.7799841,61.3250046 39.1800201,61.5500024 35.16,61.07 C32.8799886,60.7699985 30.6750107,60.1550046 28.545,59.225 C26.4149894,58.2949954 24.3900096,57.1400069 22.47,55.76 C21.8099967,59.1200168 21.285002,62.5099829 20.895,65.93 C20.5049981,69.3500171 20.2650005,72.6649839 20.175,75.875 C20.0849996,79.0850161 20.144999,82.1299856 20.355,85.01 C20.5650011,87.8900144 20.9399973,90.4399889 21.48,92.66 C22.6200057,97.3400234 24.0299916,101.254984 25.71,104.405 C27.3900084,107.555016 29.23499,110.074991 31.245,111.965 C33.2550101,113.855009 35.3849888,115.189996 37.635,115.97 C39.8850113,116.750004 42.1799883,117.050001 44.52,116.87 C46.8000114,116.689999 49.1249882,115.880007 51.495,114.44 C53.8650119,112.999993 56.1749888,111.095012 58.425,108.725 C60.6750113,106.354988 62.8349897,103.595016 64.905,100.445 C66.9750104,97.2949842 68.8649915,93.9650175 70.575,90.455 C71.1747861,89.2238601 71.7487339,87.9779638 72.2968453,86.7173062 C72.3048676,86.0658281 72.3459192,85.4067271 72.42,84.74 C72.6000009,83.1199919 72.8399985,81.6200069 73.14,80.24 C73.6800027,77.839988 74.4149953,75.2450139 75.345,72.455 C76.2750046,69.664986 77.534992,67.2650101 79.125,65.255 C80.715008,63.2449899 82.6499886,61.9100033 84.93,61.25 C87.2100114,60.5899967 89.9399841,61.159991 93.12,62.96 C93.3000009,63.0800006 93.4649993,63.1849995 93.615,63.275 C93.7650007,63.3650004 93.8999994,63.4699994 94.02,63.59 C94.3500012,62.7199961 94.7849968,62.3150001 95.415,62.285 C96.0450032,62.2549998 96.6899967,62.3599988 97.35,62.6 C98.0100033,62.8400012 98.5949975,63.1399982 99.105,63.5 C99.6150026,63.8600018 99.9299994,64.0699997 100.05,64.13 C100.530002,64.4900018 100.859999,65.1199955 101.04,66.02 C101.220001,66.9200045 101.31,67.8799949 101.31,68.9 C101.31,69.9200051 101.265,70.9099952 101.175,71.87 C101.085,72.8300048 101.04,73.5499976 101.04,74.03 C100.859999,77.9900198 100.725,81.8899808 100.635,85.73 C100.545,89.5700192 100.679998,93.4699802 101.04,97.43 C101.280001,100.070013 101.774996,101.734997 102.525,102.425 C103.275004,103.115003 104.519991,102.620008 106.26,100.94 C107.220005,100.039996 108.209995,98.7800081 109.23,97.16 C110.250005,95.5399919 111.254995,93.7250101 112.245,91.715 C113.235005,89.7049899 114.179996,87.5750112 115.08,85.325 C115.139518,85.1762053 115.198642,85.0277388 115.257373,84.8796004 C115.618302,81.0004799 116.189176,76.7539604 116.97,72.14 C117.570003,68.5999823 118.124997,65.0600177 118.635,61.52 C119.145003,57.9799823 119.639998,54.5900162 120.12,51.35 C118.859994,51.8900027 117.600006,52.4749969 116.34,53.105 C115.079994,53.7350032 113.820006,54.3799967 112.56,55.04 C111.959997,55.3400015 111.495002,55.2650023 111.165,54.815 C110.834998,54.3649978 110.909998,53.9300021 111.39,53.51 C113.070008,52.5499952 114.644993,51.7100036 116.115,50.99 C117.585007,50.2699964 119.009993,49.5800033 120.39,48.92 C120.870002,45.8599847 121.289998,43.0550128 121.65,40.505 C122.010002,37.9549873 122.399998,35.7200096 122.82,33.8 C122.88,33.4399982 123.299996,33.3499991 124.08,33.53 C124.860004,33.7100009 125.684996,34.0099979 126.555,34.43 C127.425004,34.8500021 128.219996,35.2999976 128.94,35.78 C129.660004,36.2600024 130.02,36.6799982 130.02,37.04 C129.899999,38.3000063 129.750001,39.6799925 129.57,41.18 C129.389999,42.6800075 129.150002,44.2999913 128.85,46.04 C130.77001,45.5599976 132.68999,45.1850014 134.61,44.915 C136.53001,44.6449987 138.629989,44.3900012 140.91,44.15 C141.510003,44.3300009 141.81,44.6749975 141.81,45.185 C141.81,45.6950026 141.480003,46.0099994 140.82,46.13 C138.479988,46.2500006 136.29001,46.4899982 134.25,46.85 C132.20999,47.2100018 130.290009,47.6599973 128.49,48.2 C127.769996,52.5200216 126.945005,57.2149747 126.015,62.285 C125.084995,67.3550254 124.290003,72.3799751 123.63,77.36 C122.969997,82.3400249 122.550001,87.034978 122.37,91.445 C122.189999,95.8550221 122.519996,99.559985 123.36,102.56 C123.900003,104.54001 124.499997,105.964996 125.16,106.835 C125.820003,107.705004 126.539996,108.185 127.32,108.275 C128.100004,108.365 128.924996,108.170002 129.795,107.69 C130.665004,107.209998 131.579995,106.610004 132.54,105.89 C134.820011,104.089991 136.739992,101.645015 138.3,98.555 C139.860008,95.4649846 141.149995,92.1500177 142.17,88.61 C142.562446,87.2479801 142.928245,85.8815271 143.267397,84.510635 C143.156517,84.1536807 143.060718,83.7801358 142.98,83.39 C142.679999,82.1299937 142.575,80.8550064 142.665,79.565 C142.755,78.2749935 142.904999,77.0450058 143.115,75.875 C143.325001,74.7049942 143.564999,73.625005 143.835,72.635 C144.105001,71.6449951 144.299999,70.8200033 144.42,70.16 C144.239999,68.7799931 143.910002,67.9700012 143.43,67.73 C142.949998,67.4899988 142.170005,67.2800009 141.09,67.1 C140.549997,66.7999985 140.325,66.4100024 140.415,65.93 C140.505,65.4499976 140.849997,65.1800003 141.45,65.12 C142.110003,65.2400006 142.814996,65.3599994 143.565,65.48 C144.315004,65.6000006 145.019997,65.7499991 145.68,65.93 C147.78001,66.530003 149.354995,67.2199961 150.405,68 C151.455005,68.7800039 152.129998,69.6499952 152.43,70.61 C152.730001,71.5700048 152.775001,72.5899946 152.565,73.67 C152.354999,74.7500054 152.055002,75.8599943 151.665,77 C151.274998,78.1400057 150.915002,79.309994 150.585,80.51 C150.254998,81.710006 150.12,82.8799943 150.18,84.02 C150.24,85.2800063 150.569997,86.2699964 151.17,86.99 C151.770003,87.7100036 152.474996,88.2349983 153.285,88.565 C154.095004,88.8950016 154.889996,89.0749998 155.67,89.105 C156.450004,89.1350001 157.079998,89.0900006 157.56,88.97 C159.54001,88.6099982 161.144994,87.6500078 162.375,86.09 C162.450767,85.9939047 162.525681,85.8968419 162.599741,85.7988116 C162.620458,85.4480373 162.650544,85.0951003 162.69,84.74 C162.870001,83.1199919 163.109999,81.6200069 163.41,80.24 C163.950003,77.839988 164.684995,75.2450139 165.615,72.455 C166.545005,69.664986 167.804992,67.2650101 169.395,65.255 C170.985008,63.2449899 172.919989,61.9100033 175.2,61.25 C177.480011,60.5899967 180.209984,61.159991 183.39,62.96 C183.570001,63.0800006 183.734999,63.1849995 183.885,63.275 C184.035001,63.3650004 184.169999,63.4699994 184.29,63.59 L184.38,63.5 C184.620001,62.7199961 185.054997,62.3150001 185.685,62.285 C186.315003,62.2549998 186.959997,62.3599988 187.62,62.6 C188.280003,62.8400012 188.864997,63.1399982 189.375,63.5 C189.885003,63.8600018 190.199999,64.0699997 190.32,64.13 C190.800002,64.4900018 191.129999,65.1199955 191.31,66.02 C191.490001,66.9200045 191.58,67.8799949 191.58,68.9 C191.58,69.9200051 191.535,70.9099952 191.445,71.87 C191.355,72.8300048 191.31,73.5499976 191.31,74.03 C191.129999,77.9900198 190.995,81.8899808 190.905,85.73 C190.815,89.5700192 190.949998,93.4699802 191.31,97.43 C191.550001,100.070013 192.044996,101.734997 192.795,102.425 C193.545004,103.115003 194.789991,102.620008 196.53,100.94 C197.490005,100.039996 198.479995,98.7800081 199.5,97.16 C200.520005,95.5399919 201.524995,93.7250101 202.515,91.715 C203.505005,89.7049899 204.449995,87.5750112 205.35,85.325 C206.250005,83.0749887 207.059996,80.9000105 207.78,78.8 C208.500004,76.6999895 209.099998,74.7350091 209.58,72.905 C210.060002,71.0749909 210.359999,69.560006 210.48,68.36 C210.54,67.9999982 210.689999,67.7450008 210.93,67.595 C211.170001,67.4449992 211.409999,67.3849998 211.65,67.415 C211.890001,67.4450001 212.099999,67.5499991 212.28,67.73 C212.460001,67.9100009 212.52,68.1799982 212.46,68.54 C212.099998,71.0000123 211.425005,73.8799835 210.435,77.18 C209.444995,80.4800165 208.230007,83.8099832 206.79,87.17 C205.349993,90.5300168 203.745009,93.7399847 201.975,96.8 C200.204991,99.8600153 198.390009,102.34999 196.53,104.27 C195.929997,104.930003 195.045006,105.275 193.875,105.305 C192.704994,105.335 191.505006,105.170002 190.275,104.81 C189.044994,104.449998 187.935005,103.955003 186.945,103.325 C185.954995,102.694997 185.310002,102.020004 185.01,101.3 C184.529998,99.4399907 184.200001,97.6400087 184.02,95.9 C183.839999,94.1599913 183.72,92.4200087 183.66,90.68 C183.6,88.9399913 183.6,87.170009 183.66,85.37 C183.72,83.569991 183.809999,81.6800099 183.93,79.7 C183.99,78.2599928 184.02,77.1950035 184.02,76.505 C184.02,75.8149965 183.960001,75.4250004 183.84,75.335 C183.719999,75.2449995 183.540001,75.4249977 183.3,75.875 C183.059999,76.3250022 182.760002,76.9699958 182.4,77.81 C181.499996,80.0900114 180.495006,82.6399859 179.385,85.46 C178.274994,88.2800141 176.940008,90.9799871 175.38,93.56 C175.079999,94.0400024 174.630003,94.5649971 174.03,95.135 C173.429997,95.7050028 172.770004,96.1699982 172.05,96.53 C171.329996,96.8900018 170.550004,97.1299994 169.71,97.25 C168.869996,97.3700006 168.060004,97.2200021 167.28,96.8 C165.839993,96.0799964 164.775003,95.0600066 164.085,93.74 C163.394997,92.4199934 162.945001,90.9950076 162.735,89.465 C162.718356,89.3437334 162.702936,89.2221842 162.688742,89.1003525 Z M500.46,62.06 C501.120003,61.5199973 501.809996,61.3099994 502.53,61.43 C503.250004,61.5500006 503.924997,61.8349977 504.555,62.285 C505.185003,62.7350022 505.754997,63.3049965 506.265,63.995 C506.775003,64.6850034 507.119999,65.3899964 507.3,66.11 C507.600002,67.0100045 507.705,67.954995 507.615,68.945 C507.525,69.9350049 507.330002,70.8799955 507.03,71.78 C506.609998,73.1000066 506.070003,74.254995 505.41,75.245 C504.749997,76.2350049 503.970005,77.0899964 503.07,77.81 C502.169995,78.5300036 501.210005,79.1749971 500.19,79.745 C499.169995,80.3150028 498.090006,80.8099979 496.95,81.23 C496.769999,79.429991 496.68,77.5550097 496.68,75.605 C496.68,73.6549902 496.799999,71.7950088 497.04,70.025 C497.280001,68.2549911 497.669997,66.665007 498.21,65.255 C498.750003,63.8449929 499.499995,62.7800036 500.46,62.06 Z" id="Catia-e-Jorge"></path>
            <polygon id="´" points="92.2871094 50.6767578 98.1708984 42.8398438 103.737305 42.8398438 95.9003906 50.6767578"></polygon>
            <path d="M274.546466,111.782157 L271.62155,108.256231 C267.240832,111.595193 262.125619,113.264648 256.275758,113.264648 C250.078645,113.264648 244.983466,111.468314 240.990068,107.875591 C236.996669,104.282868 235,99.7085591 235,94.1525266 C235,85.0171271 239.821389,78.820107 249.46431,75.5612802 C246.793141,70.7264635 245.457576,66.7064138 245.457576,63.5010105 C245.457576,60.0017785 246.853241,57.0435027 249.644613,54.6260944 C252.435985,52.208686 255.821642,51 259.801684,51 C263.648168,51 266.820134,52.1285522 269.317678,54.3856903 C271.815221,56.6428285 273.063974,59.5076148 273.063974,62.9801351 C273.063974,68.9101312 268.723389,74.0654109 260.042088,78.4461288 C264.022131,85.4980162 268.65654,92.0823501 273.945456,98.1993281 C276.37622,94.6733844 277.591584,89.6783725 277.591584,83.2141424 L277.551516,80.2491592 L285.404715,80.2491592 C285.404715,89.010595 282.787009,96.5698911 277.551516,102.927274 C279.955569,105.972408 282.693477,108.924006 285.765321,111.782157 L274.546466,111.782157 Z M268.175759,103.688554 C262.566303,96.7969367 257.224044,88.9838833 252.148822,80.2491592 C245.978421,82.7066351 242.893266,86.6999735 242.893266,92.2292942 C242.893266,96.4230303 244.315643,99.988988 247.160438,102.927274 C250.005234,105.865561 253.471024,107.334682 257.557913,107.334682 C261.270839,107.334682 264.810085,106.119318 268.175759,103.688554 Z M257.15724,73.4377111 C262.820119,70.8466768 265.651516,67.4009199 265.651516,63.1003371 C265.651516,58.9867361 263.594747,56.9299665 259.481146,56.9299665 C255.420968,56.9299665 253.39091,59.0000918 253.39091,63.1404044 C253.39091,65.8649973 254.64634,69.2973985 257.15724,73.4377111 Z" id="&amp;"></path>
        </g>
    </g>
</svg>