<?xml version="1.0" encoding="UTF-8" standalone="no"?>
<svg
   xmlns:dc="http://purl.org/dc/elements/1.1/"
   xmlns:cc="http://creativecommons.org/ns#"
   xmlns:rdf="http://www.w3.org/1999/02/22-rdf-syntax-ns#"
   xmlns:svg="http://www.w3.org/2000/svg"
   xmlns="http://www.w3.org/2000/svg"
   xmlns:sodipodi="http://sodipodi.sourceforge.net/DTD/sodipodi-0.dtd"
   xmlns:inkscape="http://www.inkscape.org/namespaces/inkscape"
   version="1.0"
   width="92mm"
   height="30mm"
   id="svg3802"
   sodipodi:docname="catiaejorgex.svg"
   inkscape:version="0.92.2 (5c3e80d, 2017-08-06)">
  <metadata
     id="metadata3806">
    <rdf:RDF>
      <cc:Work
         rdf:about="">
        <dc:format>image/svg+xml</dc:format>
        <dc:type
           rdf:resource="http://purl.org/dc/dcmitype/StillImage" />
        <dc:title />
      </cc:Work>
    </rdf:RDF>
  </metadata>
  <sodipodi:namedview
     pagecolor="#ffffff"
     bordercolor="#666666"
     borderopacity="1"
     objecttolerance="10"
     gridtolerance="10"
     guidetolerance="10"
     inkscape:pageopacity="0"
     inkscape:pageshadow="2"
     inkscape:window-width="1218"
     inkscape:window-height="778"
     id="namedview3804"
     showgrid="false"
     inkscape:zoom="0.55167019"
     inkscape:cx="-491.87052"
     inkscape:cy="302.4945"
     inkscape:window-x="-8"
     inkscape:window-y="-8"
     inkscape:window-maximized="1"
     inkscape:current-layer="svg3802" />
  <defs
     id="defs3774">
    <pattern
       id="EMFhbasepattern"
       patternUnits="userSpaceOnUse"
       width="6"
       height="6"
       x="0"
       y="0" />
  </defs>
  <g
     id="g4625"
     transform="translate(-131.59391,-246.21979)"
     style="fill:#ffffff;fill-opacity:1">
    <g
       aria-label="Catia"
       transform="translate(137.87152,311.5427)"
       style="font-style:normal;font-variant:normal;font-weight:400;font-size:60px;line-height:125%;font-family:'Spring Time Personal Use';text-align:start;letter-spacing:0px;word-spacing:0px;text-anchor:start;fill:#ffffff;fill-opacity:1;stroke:none"
       id="text3782">
      <path
         d="m -0.12,-40.32 q -0.06,-0.6 0.42,-0.78 0.48,-0.18 0.84,0.3 1.14,2.4 2.58,4.74 1.44,2.34 3.18,4.44 1.38,-4.32 3.42,-8.1 2.04,-3.84 4.68,-6.72 2.7,-2.88 5.94,-4.62 3.3,-1.74 7.14,-1.92 3.48,-0.18 5.76,1.2 2.34,1.32 3.6,3.6 1.26,2.28 1.5,5.28 0.24,2.94 -0.54,6.06 -0.84,3.3 -2.4,6.12 -1.56,2.82 -3.96,4.8 -2.34,1.92 -5.52,2.88 -3.18,0.9 -7.2,0.42 -2.28,-0.3 -4.44,-1.2 -2.1,-0.96 -4.02,-2.34 -0.66,3.36 -1.08,6.78 -0.36,3.42 -0.48,6.66 -0.06,3.18 0.12,6.06 0.24,2.88 0.78,5.1 1.14,4.68 2.82,7.8 1.68,3.18 3.66,5.04 2.04,1.92 4.26,2.7 2.28,0.78 4.62,0.6 2.28,-0.18 4.62,-1.62 2.4,-1.44 4.62,-3.84 2.28,-2.34 4.32,-5.52 2.1,-3.12 3.78,-6.6 1.74,-3.54 3,-7.26 1.32,-3.78 1.98,-7.38 0.06,-0.36 0.3,-0.48 0.24,-0.18 0.48,-0.12 0.24,0 0.42,0.18 0.18,0.18 0.12,0.54 -0.36,2.58 -1.44,6.24 -1.08,3.6 -2.82,7.5 -1.68,3.84 -4.02,7.62 -2.28,3.78 -5.16,6.6 -2.82,2.88 -6.12,4.38 -3.3,1.56 -7.02,1.02 -4.26,-0.6 -7.5,-2.94 Q 11.88,10.56 9.66,7.02 7.44,3.54 6.12,-0.9 4.86,-5.34 4.5,-10.2 q -0.36,-4.92 0.12,-9.96 0.54,-5.1 1.86,-9.84 -1.98,-2.16 -3.36,-4.32 -0.96,-1.44 -1.74,-2.94 -0.72,-1.5 -1.5,-3.06 z m 16.14,-0.96 q -1.56,2.52 -2.82,6.06 -1.2,3.54 -2.04,7.62 2.28,1.74 5.04,2.76 2.76,0.96 6,0.84 1.68,-0.06 3.06,-0.36 1.44,-0.3 3,-0.96 1.26,-0.54 2.52,-1.62 1.32,-1.14 2.46,-2.64 1.14,-1.56 2.04,-3.48 0.96,-1.92 1.44,-4.08 0.54,-2.22 0.54,-4.62 0.06,-2.46 -0.66,-4.44 -0.66,-2.04 -2.28,-3.42 -1.62,-1.44 -4.38,-1.74 -1.44,-0.12 -3.36,0.78 -1.92,0.84 -3.9,2.34 -1.98,1.44 -3.78,3.3 -1.74,1.86 -2.88,3.66 z"
         style="font-style:normal;font-variant:normal;font-weight:400;font-size:60px;font-family:'Spring Time Personal Use';fill:#ffffff;fill-opacity:1"
         id="path828" />
      <path
         d="m 57.988125,-21.36 q 0.18,0.12 0.3,0.24 0.18,0.06 0.3,0.18 l 0.06,-0.06 q 0.24,-0.78 0.84,-0.78 0.66,-0.06 1.32,0.18 0.66,0.24 1.14,0.6 0.54,0.36 0.66,0.42 0.48,0.36 0.66,1.26 0.18,0.9 0.18,1.92 0,1.02 -0.12,1.98 -0.06,0.96 -0.06,1.44 -0.18,3.96 -0.3,7.8 -0.06,3.84 0.3,7.8 0.24,2.64 0.96,3.3 0.78,0.72 2.52,-0.96 0.96,-0.9 1.98,-2.52 1.02,-1.62 1.98,-3.6 1.02,-2.04 1.92,-4.26 0.9,-2.28 1.62,-4.38 0.72,-2.1 1.2,-3.9 0.48,-1.86 0.6,-3.06 0.06,-0.36 0.3,-0.48 0.24,-0.18 0.48,-0.12 0.24,0 0.42,0.18 0.18,0.18 0.12,0.54 -0.36,2.46 -1.38,5.76 -0.96,3.3 -2.4,6.66 -1.44,3.36 -3.24,6.42 -1.74,3.06 -3.6,4.98 -0.6,0.66 -1.8,0.66 -1.14,0.06 -2.4,-0.3 -1.2,-0.36 -2.22,-1.02 -0.96,-0.6 -1.26,-1.32 -0.48,-1.86 -0.66,-3.6 -0.18,-1.74 -0.24,-3.48 -0.06,-1.74 0,-3.54 0.06,-1.8 0.18,-3.78 0.06,-1.44 0.06,-2.1 0,-0.72 -0.12,-0.78 -0.12,-0.12 -0.36,0.36 -0.24,0.42 -0.6,1.26 -0.9,2.28 -2.04,5.1 -1.08,2.82 -2.64,5.4 -0.3,0.48 -0.9,1.02 -0.6,0.6 -1.32,0.96 -0.72,0.36 -1.56,0.48 -0.84,0.12 -1.62,-0.3 -1.44,-0.72 -2.16,-2.04 -0.66,-1.32 -0.9,-2.82 -0.18,-1.56 0,-3.18 0.18,-1.62 0.48,-3 0.54,-2.4 1.44,-5.16 0.96,-2.82 2.52,-4.8 1.62,-2.04 3.9,-2.7 2.28,-0.66 5.46,1.14 z m -8.76,20.58 q 0.48,0.3 1.14,-0.42 0.72,-0.72 1.44,-2.1 0.78,-1.38 1.56,-3.24 0.84,-1.92 1.56,-3.9 0.78,-1.98 1.44,-3.9 0.72,-1.92 1.2,-3.42 0.24,-1.44 -0.12,-2.1 -0.36,-0.72 -1.02,-0.84 -0.6,-0.18 -1.32,0.18 -0.72,0.3 -1.2,0.84 -0.84,0.96 -1.56,2.4 -0.72,1.44 -1.32,3.06 -0.6,1.56 -1.08,3.06 -0.42,1.5 -0.66,2.52 -0.18,0.78 -0.42,1.98 -0.18,1.2 -0.3,2.4 -0.06,1.2 0.06,2.22 0.12,0.96 0.6,1.26 z"
         style="font-style:normal;font-variant:normal;font-weight:400;font-size:60px;font-family:'Spring Time Personal Use';fill:#ffffff;fill-opacity:1"
         id="path830" />
      <path
         d="m 70.93875,-26.64 q -0.6,0.3 -0.9,-0.12 -0.36,-0.48 0.12,-0.9 1.68,-0.96 3.12,-1.68 1.5,-0.72 2.88,-1.38 0.48,-3.06 0.84,-5.58 0.36,-2.58 0.78,-4.5 0.06,-0.36 0.84,-0.18 0.78,0.18 1.62,0.6 0.9,0.42 1.62,0.9 0.72,0.48 0.72,0.84 -0.12,1.26 -0.3,2.76 -0.18,1.5 -0.48,3.24 1.92,-0.48 3.84,-0.72 1.92,-0.3 4.2,-0.54 0.6,0.18 0.6,0.72 0,0.48 -0.66,0.6 -2.34,0.12 -4.38,0.48 -2.04,0.36 -3.84,0.9 -0.72,4.32 -1.68,9.42 -0.9,5.04 -1.56,10.02 -0.66,4.98 -0.84,9.42 -0.18,4.38 0.66,7.38 0.54,1.98 1.2,2.82 0.66,0.9 1.44,0.96 0.78,0.12 1.62,-0.36 0.9,-0.48 1.86,-1.2 2.28,-1.8 3.84,-4.92 1.56,-3.06 2.58,-6.6 1.02,-3.54 1.68,-7.14 0.66,-3.6 1.2,-6.54 0.12,-0.66 0.72,-0.6 0.66,0.06 0.6,0.72 -0.54,3.06 -1.2,6.78 -0.66,3.66 -1.74,7.32 -1.02,3.66 -2.58,6.84 -1.5,3.24 -3.78,5.28 -1.26,1.14 -2.76,2.04 -1.5,0.96 -3.12,1.08 -1.56,0.12 -3.18,-0.96 -1.56,-1.02 -2.88,-3.84 -1.32,-2.76 -1.2,-8.46 0.12,-5.7 1.44,-13.5 0.6,-3.54 1.08,-7.08 0.54,-3.54 1.02,-6.78 -1.26,0.54 -2.52,1.2 -1.26,0.6 -2.52,1.26 z"
         style="font-style:normal;font-variant:normal;font-weight:400;font-size:60px;font-family:'Spring Time Personal Use';fill:#ffffff;fill-opacity:1"
         id="path832" />
      <path
         d="m 90.016875,-18.6 q -0.54,-0.3 -0.48,-0.78 0.12,-0.48 0.72,-0.54 0.66,0.12 1.38,0.24 0.78,0.12 1.44,0.3 2.1,0.6 3.12,1.38 1.08,0.78 1.38,1.74 0.3,0.96 0.06,2.04 -0.18,1.08 -0.6,2.22 -0.36,1.14 -0.72,2.34 -0.3,1.2 -0.24,2.34 0.06,1.26 0.66,1.98 0.6,0.72 1.38,1.08 0.84,0.3 1.62,0.36 0.780005,0 1.260005,-0.12 1.98,-0.36 3.17999,-1.92 1.26001,-1.56 2.04001,-3.6 0.78,-2.1 1.2,-4.32 0.47999,-2.28 0.95999,-4.02 0.06,-0.3 0.3,-0.36 0.24001,-0.12 0.42,-0.06 0.24001,0.06 0.42001,0.3 0.18,0.18 0.12,0.48 -0.36,2.04 -0.90001,4.68 -0.47999,2.58 -1.5,4.92 -1.01999,2.28 -2.75999,3.96 -1.74001,1.62 -4.560005,1.68 -1.14,0.06 -2.52,-0.12 -1.32,-0.24 -2.58,-0.84 -1.26,-0.6 -2.22,-1.68 -0.96,-1.08 -1.32,-2.82 -0.3,-1.26 -0.24,-2.52 0.12,-1.32 0.3,-2.46 0.24,-1.2 0.48,-2.16 0.3,-1.02 0.42,-1.68 -0.18,-1.38 -0.66,-1.62 -0.48,-0.24 -1.56,-0.42 z m 4.02,-10.62 q -0.06,-0.72 0,-1.26 0.06,-0.54 0.72,-0.54 0.48,0 1.02,0.18 0.6,0.12 1.08,0.36 0.18,0.12 0.3,0.54 0.12,0.36 0.18,0.9 0.06,0.54 0.06,1.2 0.06,0.6 0.06,1.08 0.06,0.72 -0.6,0.48 -0.66,-0.3 -1.74,-0.42 -0.66,-0.12 -0.84,-0.78 -0.18,-0.66 -0.24,-1.74 z"
         style="font-style:normal;font-variant:normal;font-weight:400;font-size:60px;font-family:'Spring Time Personal Use';fill:#ffffff;fill-opacity:1"
         id="path834" />
      <path
         d="m 118.2225,-21.36 q 0.18,0.12 0.3,0.24 0.18,0.06 0.3,0.18 l 0.06,-0.06 q 0.24,-0.78 0.84,-0.78 0.66,-0.06 1.32,0.18 0.66,0.24 1.14,0.6 0.54,0.36 0.66,0.42 0.48,0.36 0.66,1.26 0.18,0.9 0.18,1.92 0,1.02 -0.12,1.98 -0.06,0.96 -0.06,1.44 -0.18,3.96 -0.3,7.8 -0.06,3.84 0.3,7.8 0.24,2.64 0.96,3.3 0.78,0.72 2.52,-0.96 0.96,-0.9 1.98,-2.52 1.02,-1.62 1.98,-3.6 1.02,-2.04 1.92,-4.26 0.9,-2.28 1.62,-4.38 0.72,-2.1 1.2,-3.9 0.48,-1.86 0.6,-3.06 0.06,-0.36 0.3,-0.48 0.24,-0.18 0.48,-0.12 0.24,0 0.42,0.18 0.18,0.18 0.12,0.54 -0.36,2.46 -1.38,5.76 -0.96,3.3 -2.4,6.66 -1.44,3.36 -3.24,6.42 -1.74,3.06 -3.6,4.98 -0.6,0.66 -1.8,0.66 -1.14,0.06 -2.4,-0.3 -1.2,-0.36 -2.22,-1.02 -0.96,-0.6 -1.26,-1.32 -0.48,-1.86 -0.66,-3.6 -0.18,-1.74 -0.24,-3.48 -0.06,-1.74 0,-3.54 0.06,-1.8 0.18,-3.78 0.06,-1.44 0.06,-2.1 0,-0.72 -0.12,-0.78 -0.12,-0.12 -0.36,0.36 -0.24,0.42 -0.6,1.26 -0.9,2.28 -2.04,5.1 -1.08,2.82 -2.64,5.4 -0.3,0.48 -0.9,1.02 -0.6,0.6 -1.32,0.96 -0.72,0.36 -1.56,0.48 -0.84,0.12 -1.62,-0.3 -1.44,-0.72 -2.16,-2.04 -0.66,-1.32 -0.9,-2.82 -0.18,-1.56 0,-3.18 0.18,-1.62 0.48,-3 0.54,-2.4 1.44,-5.16 0.96,-2.82 2.52,-4.8 1.62,-2.04 3.9,-2.7 2.28,-0.66 5.46,1.14 z m -8.76,20.58 q 0.48,0.3 1.14,-0.42 0.72,-0.72 1.44,-2.1 0.78,-1.38 1.56,-3.24 0.84,-1.92 1.56,-3.9 0.78,-1.98 1.44,-3.9 0.72,-1.92 1.2,-3.42 0.24,-1.44 -0.12,-2.1 -0.36,-0.72 -1.02,-0.84 -0.6,-0.18 -1.32,0.18 -0.72,0.3 -1.2,0.84 -0.84,0.96 -1.56,2.4 -0.72,1.44 -1.32,3.06 -0.6,1.56 -1.08,3.06 -0.42,1.5 -0.66,2.52 -0.18,0.78 -0.42,1.98 -0.18,1.2 -0.3,2.4 -0.06,1.2 0.06,2.22 0.12,0.96 0.6,1.26 z"
         style="font-style:normal;font-variant:normal;font-weight:400;font-size:60px;font-family:'Spring Time Personal Use';fill:#ffffff;fill-opacity:1"
         id="path836" />
    </g>
    <g
       aria-label="&amp;"
       transform="translate(285.27846,311.5427)"
       style="font-style:normal;font-variant:normal;font-weight:400;font-size:40px;line-height:125%;font-family:'Times New Roman';text-align:start;letter-spacing:0px;word-spacing:0px;text-anchor:start;fill:#ffffff;fill-opacity:1;stroke:none"
       id="text3788">
      <path
         d="m 20.410156,-17.050781 h 8.203125 v 0.722656 q -1.699219,0.136719 -2.519531,0.761719 -0.800781,0.605468 -2.519531,3.710937 -1.71875,3.105469 -3.867188,5.8007815 1.738281,2.03125 3.105469,2.8515625 1.367187,0.8007812 2.753906,0.8007812 1.347656,0 2.285156,-0.7226562 0.9375,-0.7421875 1.328125,-2.1679687 l 0.722657,0.5273437 q -0.722657,2.7539062 -2.324219,4.0625 -1.601563,1.30859375 -3.730469,1.30859375 -1.601562,0 -3.261719,-0.859375 -1.640625,-0.87890625 -3.59375,-2.94921875 -2.421874,2.1484375 -4.374999,2.98828125 -1.933594,0.8203125 -4.1406255,0.8203125 -3.2226563,0 -5.1171875,-1.71874995 -1.8945313,-1.7187501 -1.8945313,-4.1015625 0,-2.3632813 1.6992188,-4.7070313 1.6992187,-2.363281 6.3867188,-4.882813 -0.9179688,-2.031249 -1.25,-3.320312 -0.3320313,-1.308594 -0.3320313,-2.5 0,-3.339844 2.460938,-5.097656 1.914062,-1.367188 4.355468,-1.367188 2.324219,0 3.789063,1.386719 1.464843,1.367188 1.464843,3.378906 0,2.070313 -1.425781,3.632813 -1.40625,1.5625 -5,3.417968 2.480469,4.414063 5.175781,8.085938 3.4375,-4.101563 3.4375,-6.914063 0,-0.898437 -0.585937,-1.601562 -0.429688,-0.527344 -1.230469,-0.625 z m -7.460937,0.507812 q 2.421875,-1.152343 3.613281,-2.617187 1.210937,-1.464844 1.210937,-3.261719 0,-1.40625 -0.878906,-2.324219 -0.859375,-0.917968 -2.148437,-0.917968 -1.699219,0 -2.578125,1.191406 -0.859375,1.171875 -0.859375,2.304687 0,0.957032 0.332031,2.148438 0.332031,1.171875 1.308594,3.476562 z m 3.027344,12.2070315 q -2.578125,-3.515625 -3.574219,-5.1367188 -0.996094,-1.6210937 -2.1875,-4.0234377 -2.3437503,1.347656 -3.5351565,2.96875 -1.171875,1.621094 -1.171875,3.5156253 0,2.0898437 1.3476562,3.6718749 1.3476563,1.5820313 3.6328123,1.5820313 1.230469,0 2.363282,-0.4882813 1.152343,-0.4882812 3.125,-2.0898437 z"
         style="font-style:normal;font-variant:normal;font-weight:400;font-size:40px;font-family:'Times New Roman';fill:#ffffff;fill-opacity:1"
         id="path839" />
    </g>
    <g
       aria-label="Jorge"
       transform="translate(329.77263,311.5427)"
       style="font-style:normal;font-variant:normal;font-weight:400;font-size:60px;line-height:125%;font-family:'Spring Time Personal Use';text-align:start;letter-spacing:0px;word-spacing:0px;text-anchor:start;fill:#ffffff;fill-opacity:1;stroke:none"
       id="text3794">
      <path
         d="m 27.72,-11.16 q 0.48,-0.42 0.9,0 0.42,0.42 0,0.9 -1.68,1.62 -3.6,3.18 -1.86,1.5 -3.96,2.7 -2.1,1.14 -4.38,1.92 -2.28,0.78 -4.74,0.84 -1.8,0.06 -3.48,-0.3 -1.62,-0.42 -3,-1.32 -1.32,-0.9 -2.34,-2.34 -1.02,-1.5 -1.56,-3.6 -0.54,-2.22 -0.36,-5.64 0.18,-3.42 1.02,-7.5 0.84,-4.08 2.22,-8.52 1.38,-4.5 3.24,-8.82 1.86,-4.32 4.14,-8.22 2.28,-3.96 4.8,-6.9 2.58,-3 5.34,-4.74 2.82,-1.8 5.76,-1.86 3.48,0 6,1.62 2.52,1.56 4.14,4.38 1.68,2.82 2.52,6.66 0.84,3.84 0.96,8.4 0.06,3.24 0,7.86 -0.06,4.56 -0.42,10.02 -0.36,5.46 -1.14,11.58 -0.72,6.06 -1.98,12.18 4.44,-1.92 7.86,-4.5 3.42,-2.58 5.28,-6.48 0.9,-1.92 1.38,-3.84 0.54,-1.92 0.84,-4.02 0.12,-0.66 0.72,-0.6 0.66,0.06 0.6,0.72 -0.36,2.16 -0.9,4.26 -0.54,2.04 -1.5,4.08 -1.98,4.26 -5.88,7.08 -3.84,2.76 -8.7,4.8 -1.08,4.74 -2.52,9.36 -1.38,4.62 -3.24,8.88 -1.8,4.32 -4.14,8.1 -2.28,3.78 -5.1,6.84 -3,3.18 -5.88,4.86 -2.88,1.74 -5.64,2.46 -2.76,0.72 -5.4,0.78 -2.64,0.06 -5.16,-0.06 -2.16,-0.06 -3.78,-0.96 -1.62,-0.9 -2.76,-2.28 -1.14,-1.32 -1.74,-3.06 -0.6,-1.68 -0.66,-3.42 -0.18,-5.34 1.38,-9.3 1.5,-3.9 4.26,-6.78 2.76,-2.88 6.48,-4.92 3.78,-2.04 8.04,-3.6 4.26,-1.56 8.82,-2.82 4.62,-1.2 9,-2.58 1.5,-6.18 2.46,-12.36 1.02,-6.24 1.68,-11.88 0.66,-5.7 0.96,-10.56 0.36,-4.86 0.54,-8.28 0.06,-1.26 0.12,-3.3 0.06,-2.04 -0.12,-4.38 -0.12,-2.4 -0.54,-4.8 -0.36,-2.46 -1.2,-4.38 -0.84,-1.98 -2.22,-3.18 -1.38,-1.26 -3.42,-1.26 -2.7,0 -5.34,1.74 -2.64,1.68 -5.1,4.62 -2.46,2.88 -4.62,6.72 -2.16,3.78 -3.96,7.98 -1.8,4.2 -3.18,8.58 -1.32,4.32 -2.1,8.28 -0.78,3.9 -0.96,7.2 -0.18,3.3 0.42,5.4 0.84,3.42 3.12,5.1 2.34,1.62 5.82,1.44 2.34,-0.12 4.5,-0.78 2.16,-0.72 4.14,-1.86 1.98,-1.14 3.78,-2.52 1.86,-1.44 3.48,-3 z M 15.9,34.56 q 2.34,-2.58 4.26,-5.82 1.98,-3.18 3.6,-6.9 1.62,-3.66 2.94,-7.74 1.38,-4.08 2.46,-8.34 -4.32,1.38 -8.76,2.64 -4.44,1.26 -8.58,2.76 -4.14,1.56 -7.74,3.48 -3.54,1.98 -6.12,4.68 -2.64,2.7 -4.02,6.36 -1.44,3.66 -1.2,8.58 0.06,1.62 0.66,3 0.54,1.44 1.5,2.52 0.96,1.08 2.34,1.68 1.38,0.66 3.18,0.6 Q 5.1,42 8.88,40.02 12.72,38.04 15.9,34.56 Z"
         style="font-style:normal;font-variant:normal;font-weight:400;font-size:60px;font-family:'Spring Time Personal Use';fill:#ffffff;fill-opacity:1"
         id="path842" />
      <path
         d="m 49.89,-19.38 q 0.06,-0.36 0.9,0 0.84,0.3 1.74,0.96 -0.42,-1.74 -0.66,-3.42 -0.24,-1.74 -0.3,-3.12 0,-0.9 0.06,-2.1 0.12,-1.26 0.48,-2.4 0.36,-1.14 1.02,-1.98 0.72,-0.9 1.92,-1.14 1.86,-0.36 3.12,0.42 1.32,0.72 2.16,2.1 0.9,1.32 1.38,3 0.48,1.62 0.72,3.06 0.6,3.96 0.36,8.28 -0.24,4.26 -1.08,8.28 1.38,0.6 2.88,0.36 1.5,-0.3 2.82,-1.2 1.32,-0.96 2.34,-2.52 1.08,-1.56 1.62,-3.54 0.18,-0.84 0.48,-1.68 0.36,-0.9 0.48,-1.74 0.12,-0.66 0.72,-0.6 0.66,0.06 0.6,0.72 -0.12,0.9 -0.42,1.98 -0.3,1.08 -0.6,1.98 -1.02,2.88 -2.4,4.68 -1.32,1.74 -2.82,2.58 -1.5,0.84 -3.06,0.9 -1.56,0 -3,-0.48 l -0.18,0.9 q -0.54,2.04 -1.74,3.6 -1.2,1.5 -2.7,2.22 -1.5,0.72 -3.12,0.42 -1.56,-0.3 -2.82,-2.04 -0.54,-0.72 -0.84,-2.1 -0.3,-1.44 -0.42,-3.24 -0.12,-1.8 -0.12,-3.78 0,-1.98 0.06,-3.78 0.12,-1.86 0.18,-3.3 0.12,-1.5 0.24,-2.28 z m 11.22,-4.44 q -0.36,-2.16 -1.08,-3.96 -0.66,-1.8 -1.44,-2.4 -0.78,-0.66 -1.56,0.36 -0.72,0.96 -1.14,4.32 -0.18,1.56 -0.12,3.6 0.06,1.98 0.36,4.02 0.36,1.98 0.9,3.9 0.6,1.92 1.38,3.3 0.48,0.84 1.02,1.5 0.54,0.6 1.14,1.08 0.84,-3.78 0.96,-7.86 0.18,-4.08 -0.42,-7.86 z m -5.76,22.8 q 1.02,0.18 1.8,-0.3 0.78,-0.48 1.38,-1.32 0.6,-0.84 1.02,-1.86 0.42,-1.08 0.66,-1.98 -1.38,-0.66 -2.52,-1.68 -1.14,-1.02 -1.92,-2.16 -1.08,-1.5 -1.92,-3.78 -0.18,1.74 -0.24,3.96 0,2.16 0.12,4.2 0.18,1.98 0.54,3.42 0.42,1.38 1.08,1.5 z"
         style="font-style:normal;font-variant:normal;font-weight:400;font-size:60px;font-family:'Spring Time Personal Use';fill:#ffffff;fill-opacity:1"
         id="path844" />
      <path
         d="m 78.58875,-12.66 q -0.12,-0.78 -0.42,-1.32 -0.3,-0.54 -0.78,-0.9 -0.42,-0.36 -1.02,-0.66 -0.54,-0.3 -1.2,-0.6 -1.5,-0.72 -3.12,-1.62 -1.56,-0.9 -2.88,-2.04 -1.26,-1.2 -1.98,-2.7 -0.72,-1.56 -0.54,-3.54 0.12,-1.14 0.96,-2.1 0.84,-1.02 1.92,-1.44 1.08,-0.42 2.16,-0.12 1.14,0.3 1.8,1.74 1.08,2.28 0.96,4.8 -0.06,2.46 -0.72,4.86 0.9,0.48 1.8,0.9 0.9,0.42 1.68,0.78 1.02,0.54 2.22,1.2 1.26,0.6 1.86,1.74 0.6,1.44 0.84,2.52 0.24,1.08 0.12,2.16 -0.06,1.02 -0.48,2.16 -0.36,1.14 -0.96,2.64 -0.12,0.36 -0.66,1.26 -0.48,0.9 -1.08,2.1 -0.6,1.14 -1.26,2.52 -0.6,1.38 -1.08,2.64 -0.42,1.32 -0.54,2.4 -0.06,1.08 0.36,1.74 0.54,0.84 1.74,0.48 1.2,-0.3 2.64,-1.68 1.5,-1.32 3.12,-3.66 1.62,-2.28 3.06,-5.4 1.44,-3.12 2.52,-7.02 1.14,-3.9 1.62,-8.46 0,-0.3 0.24,-0.48 0.3,-0.18 0.54,-0.18 0.3,0 0.48,0.18 0.24,0.12 0.18,0.42 -0.78,5.16 -2.04,9.78 -1.26,4.62 -3.12,8.34 -1.86,3.78 -4.44,6.48 -2.52,2.7 -5.94,4.08 -1.44,0.6 -2.7,0.12 -1.26,-0.42 -1.98,-2.16 -0.3,-1.14 -0.18,-2.52 0.18,-1.38 0.54,-2.76 0.42,-1.32 0.9,-2.58 0.54,-1.26 1.02,-2.28 0.72,-1.5 1.5,-2.94 0.78,-1.44 1.38,-2.88 0.6,-1.44 0.9,-2.88 0.3,-1.5 0.06,-3.12 z m -10.56,-11.4 q 0.3,1.74 1.56,3 1.32,1.2 2.94,2.16 0.24,-0.96 0.42,-2.04 0.18,-1.14 0.18,-2.22 0.06,-1.14 -0.12,-2.16 -0.18,-1.08 -0.72,-1.98 -0.54,-0.9 -1.38,-0.96 -0.78,-0.12 -1.5,0.36 -0.72,0.48 -1.2,1.5 -0.42,1.02 -0.18,2.34 z"
         style="font-style:normal;font-variant:normal;font-weight:400;font-size:60px;font-family:'Spring Time Personal Use';fill:#ffffff;fill-opacity:1"
         id="path846" />
      <path
         d="m 100.5075,-28.2 q 0.6,0.18 0.6,0.72 0,0.48 -0.66,0.6 -0.54,0 -0.96,-0.18 -0.42,-0.24 -0.9,0.12 -0.54,0.48 -1.38,1.92 -0.84,1.44 -1.68,3.18 -0.78,1.74 -1.44,3.48 -0.6,1.68 -0.72,2.64 -0.06,0.36 -0.3,1.26 -0.18,0.9 -0.24,1.86 -0.06,0.96 0.12,1.62 0.18,0.66 0.84,0.54 0.6,-0.12 1.14,-0.72 0.54,-0.6 0.9,-1.38 0.42,-0.78 0.72,-1.56 0.3,-0.78 0.48,-1.26 0.42,-1.26 1.08,-3.3 0.72,-2.04 1.5,-4.2 0.84,-2.16 1.74,-4.08 0.96,-1.92 1.92,-2.88 0.06,-0.06 0.6,-0.06 0.54,0 1.2,0.12 0.72,0.06 1.32,0.3 0.6,0.18 0.72,0.48 0.12,0.6 0.06,1.68 -0.06,1.02 -0.18,1.62 -0.42,2.88 -0.84,6.3 -0.36,3.36 -0.84,7.02 -0.48,3.66 -1.2,7.5 -0.66,3.84 -1.62,7.68 -0.18,0.78 -0.42,1.56 -0.18,0.78 -0.42,1.56 3.3,-1.86 6.12,-3.78 2.88,-1.92 4.92,-3.84 1.62,-1.62 2.76,-3.48 1.14,-1.86 1.92,-3.9 0.78,-2.1 1.32,-4.38 0.54,-2.28 0.96,-4.68 0.06,-0.3 0.24,-0.42 0.24,-0.12 0.48,-0.06 0.24,0 0.36,0.3 0.18,0.24 0.12,0.78 -0.9,4.98 -2.28,9.12 -1.38,4.08 -4.38,7.08 -2.34,2.34 -5.76,4.56 -3.36,2.28 -7.26,4.38 -1.44,4.86 -3.42,9.3 -1.98,4.44 -4.62,8.04 -2.58,3.66 -5.82,6.18 -3.18,2.58 -7.14,3.66 -1.86,0.54 -4.32,0.78 -2.52,0.3 -4.86,-0.06 -2.34,-0.3 -4.14,-1.38 -1.8,-1.08 -2.28,-3.36 -0.42,-1.86 0.48,-3.6 0.84,-1.68 2.46,-3.24 1.62,-1.5 3.84,-2.88 2.22,-1.32 4.5,-2.46 2.28,-1.14 4.5,-2.1 2.16,-0.96 3.72,-1.74 l 10.92,-5.28 q 1.08,-3.42 1.92,-6.66 0.84,-3.24 1.5,-6.18 0.42,-1.92 0.84,-4.32 0.48,-2.46 0.9,-4.98 0.48,-2.58 0.9,-5.1 0.42,-2.58 0.72,-4.74 0.18,-1.38 -0.06,-1.14 -0.24,0.18 -0.78,1.26 -0.48,1.08 -1.14,2.76 -0.6,1.68 -1.2,3.3 -0.54,1.62 -0.96,2.82 -0.42,1.2 -0.48,1.38 -0.84,1.86 -1.98,2.76 -1.14,0.9 -2.82,0.6 -1.26,-0.24 -2.04,-1.08 -0.78,-0.84 -1.26,-1.92 -0.42,-1.08 -0.54,-2.1 -0.12,-1.08 -0.12,-1.8 0.06,-1.14 0.54,-3.18 0.54,-2.04 1.44,-4.02 0.96,-2.04 2.22,-3.6 1.26,-1.56 2.82,-1.74 0.36,-0.06 1.02,-0.06 0.72,-0.06 1.5,0 0.84,0 1.5,0.06 0.72,0 1.08,0 z m -20.76,61.32 q 2.4,-1.14 4.56,-3.36 2.1,-2.22 3.9,-5.16 1.86,-2.94 3.42,-6.42 1.56,-3.48 2.82,-7.08 -2.58,1.26 -5.1,2.4 -2.46,1.2 -4.74,2.34 -1.44,0.66 -3.48,1.56 -2.1,0.96 -4.32,2.04 -2.28,1.14 -4.38,2.46 -2.16,1.32 -3.72,2.76 -1.62,1.44 -2.34,3 -0.78,1.56 -0.18,3.24 0.6,1.92 2.22,2.76 1.62,0.9 3.6,1.02 1.98,0.12 4.08,-0.36 2.04,-0.42 3.66,-1.2 z"
         style="font-style:normal;font-variant:normal;font-weight:400;font-size:60px;font-family:'Spring Time Personal Use';fill:#ffffff;fill-opacity:1"
         id="path848" />
      <path
         d="m 131.20687,-15.12 q -0.96,3.12 -3.06,4.74 -2.09999,1.56 -4.8,2.52 0.12001,1.32 0.3,2.4 0.24001,1.02 0.42,1.56 0.96001,2.94 2.34001,4.2 1.37999,1.26 2.93999,1.26 1.56001,0 3.18,-1.02 1.68,-1.02 3.12,-2.52 1.44,-1.56 2.58,-3.42 1.14,-1.86 1.74001,-3.54 0.83999,-2.34 1.25999,-4.5 0.42,-2.22 0.9,-4.86 0.3,-0.48 0.78001,-0.36 0.47999,0.06 0.47999,0.66 -0.47999,2.7 -0.9,4.98 -0.36,2.28 -1.32,4.68 -0.72,1.98 -1.92,3.96 -1.14,1.98 -2.64,3.66 -1.5,1.62 -3.3,2.76 -1.8,1.2 -3.78,1.56 -1.08,0.18 -2.4,0.06 -1.31999,-0.12 -2.7,-0.72 -1.31999,-0.6 -2.64,-1.86 -1.25999,-1.2 -2.28,-3.3 -0.83999,-1.62 -1.19999,-3.6 -0.36,-2.04 -0.36,-4.14 0,-2.1 0.24,-4.14 0.29999,-2.1 0.78,-3.9 0.17999,-0.78 0.53999,-1.68 0.42,-0.96 0.96001,-1.8 0.59999,-0.84 1.31999,-1.44 0.78,-0.66 1.74001,-0.9 1.92,-0.48 3.3,-0.3 1.37999,0.18 2.33999,0.84 0.96,0.66 1.5,1.68 0.54,1.02 0.78,2.1 0.42,2.1 -0.24,4.38 z m -5.64,-6.84 q -0.95999,0.72 -1.5,2.16 -0.53999,1.38 -0.78,3.18 -0.23999,1.74 -0.23999,3.72 0,1.92 0.18,3.72 1.13999,-0.42 2.16,-0.96 1.02,-0.6 1.92,-1.32 0.89999,-0.72 1.55999,-1.68 0.66,-1.02 1.08,-2.34 0.3,-0.9 0.36,-1.86 0.12,-1.02 -0.18,-1.92 -0.18,-0.72 -0.71999,-1.38 -0.48001,-0.72 -1.14001,-1.14 -0.59999,-0.48 -1.31999,-0.6 -0.72,-0.12 -1.38001,0.42 z"
         style="font-style:normal;font-variant:normal;font-weight:400;font-size:60px;font-family:'Spring Time Personal Use';fill:#ffffff;fill-opacity:1"
         id="path850" />
    </g>
    <g
       aria-label="´"
       transform="translate(189.7456,318.1019)"
       style="font-style:normal;font-variant:normal;font-weight:400;font-size:60px;line-height:125%;font-family:'Cambria Math';text-align:start;letter-spacing:0px;word-spacing:0px;text-anchor:start;fill:#ffffff;fill-opacity:1;stroke:none"
       id="text3800">
      <path
         d="m 15.263672,-42.246094 v 1.464844 l -9.2871095,9.433594 -1.9042969,-1.523438 6.0644534,-9.375 z"
         style="font-style:normal;font-variant:normal;font-weight:400;font-size:60px;font-family:'Cambria Math';fill:#ffffff;fill-opacity:1"
         id="path853" />
    </g>
  </g>
</svg>
