<?xml version="1.0" encoding="iso-8859-1"?>
<!-- Generator: Adobe Illustrator 19.0.0, SVG Export Plug-In . SVG Version: 6.00 Build 0)  -->
<svg version="1.1" id="Capa_1" xmlns="http://www.w3.org/2000/svg" xmlns:xlink="http://www.w3.org/1999/xlink" x="0px" y="0px"
	 viewBox="0 0 400.384 400.384" style="enable-background:new 0 0 400.384 400.384;" xml:space="preserve">
<g>
	<g>
		<path d="M190.208,65.536c0-2.048-2.048-3.584-4.096-4.096l-52.224-9.728c-0.512,0-0.512,0-1.024,0
			c-0.512,0-0.512-0.512-1.024-0.512l-52.224-9.728c-2.048-0.512-4.608,0.512-5.632,2.56c-2.048,4.608-53.248,110.08-25.088,166.912
			c8.192,16.384,22.528,27.136,42.496,31.744L64.768,381.952l-31.232-5.632c-2.56-0.512-5.632,1.536-6.144,4.096
			s1.536,5.632,4.096,6.144l73.216,13.312c0.512,0,0.512,0,1.024,0c2.56,0,4.608-1.536,5.12-4.096s-1.536-5.632-4.096-6.144
			l-31.744-6.144l26.624-139.264c3.584,0.512,7.68,1.024,10.752,1.024c15.872,0,29.184-5.12,40.448-15.36
			C199.936,187.392,190.208,70.656,190.208,65.536z M146.176,222.72c-12.288,11.264-27.648,14.848-46.592,11.264h-0.512H98.56
			c0,0,0,0-0.512,0c0,0,0,0-0.512,0c-18.944-3.584-31.744-12.288-39.424-27.648c-15.872-31.744-3.584-83.456,9.216-118.784v0.512
			L70.4,87.04c8.192-2.048,15.872-4.096,29.184-1.536c13.312,2.56,19.456,7.168,26.624,12.288
			c7.168,5.632,14.848,11.264,30.72,14.336c5.12,1.024,9.216,1.536,13.312,1.536c4.096,0,7.68-0.512,10.752-1.024
			C178.944,149.504,171.776,199.168,146.176,222.72z M180.992,101.888c-5.632,1.024-12.288,2.048-22.016,0
			c-13.312-2.56-19.456-7.168-26.624-12.288c-7.168-5.632-14.848-11.264-30.72-14.336c-13.312-2.56-22.528-1.024-30.208,1.024
			c4.096-11.264,8.192-19.456,10.24-24.064l48.64,9.216c0.512,0,0.512,0,1.024,0c0.512,0,0.512,0.512,1.024,0.512l48.64,9.216
			C180.48,76.288,180.992,87.552,180.992,101.888z"/>
	</g>
</g>
<g>
	<g>
		<path d="M372.992,380.416c-0.512-3.072-3.584-4.608-6.144-4.096l-31.744,6.144L308.48,243.2
			c19.968-4.608,33.792-15.36,42.496-31.744c28.672-56.832-22.528-162.304-24.576-166.4c-1.024-2.048-3.072-3.072-5.632-2.56
			l-52.224,9.728c-0.512,0-0.512,0-1.024,0.512c-0.512,0-0.512,0-1.024,0l-52.224,9.728c-2.048,0.512-4.096,2.048-4.096,4.608
			c-0.512,5.12-9.728,121.856,37.376,164.352c11.264,10.24,25.088,15.36,40.448,15.36c3.584,0,7.168-0.512,10.752-1.024L325.376,384
			l-31.744,6.144c-2.56,0.512-4.608,3.072-4.096,6.144c0.512,2.56,2.56,4.096,5.12,4.096c0.512,0,0.512,0,1.024,0l73.216-13.824
			C371.456,386.048,373.504,383.488,372.992,380.416z M219.904,70.656l48.64-9.216c0.512,0,0.512,0,1.024-0.512
			c0.512,0,0.512,0,1.024,0l48.64-9.216c2.048,4.608,5.632,13.312,10.24,24.064c-7.68-2.048-16.896-3.584-30.208-1.024
			c-15.36,3.072-23.04,8.704-30.72,14.336c-6.656,5.12-13.312,9.728-26.624,12.288c-9.728,2.048-16.384,1.024-22.016,0
			C218.88,87.552,219.392,76.288,219.904,70.656z M302.111,233.984c-0.291,0-0.382,0-0.799,0H300.8
			c-18.944,3.584-34.304,0-46.592-11.264c-25.6-23.04-32.768-73.216-34.304-110.08c3.072,0.512,6.656,1.024,10.752,1.024
			c4.096,0,8.192-0.512,13.312-1.536c15.36-3.072,23.04-8.704,30.72-14.336c6.656-5.12,13.312-9.728,26.624-12.288
			c13.312-2.56,20.992-0.512,29.184,1.536l3.072,1.024v-0.512c12.288,35.328,25.088,87.04,9.216,118.784
			c-8.192,14.848-20.992,24.064-40.448,27.648C302.336,233.984,302.136,233.984,302.111,233.984z"/>
	</g>
</g>
<g>
	<g>
		<path d="M201.984,0c-2.56,0-5.12,2.048-5.12,5.12l-0.512,26.624c0,3.072,2.048,5.12,5.12,5.12c2.56,0,5.12-2.048,5.12-5.12
			l0.512-26.624C207.104,2.048,205.056,0,201.984,0z"/>
	</g>
</g>
<g>
	<g>
		<path d="M248.576,6.656c-2.56-1.536-5.632-0.512-7.168,1.536l-13.824,23.04c-2.048,3.072-1.024,6.144,1.536,7.68
			c1.024,0.512,1.536,0.512,2.56,0.512c1.536,0,3.584-1.024,4.608-2.56l13.824-23.04C251.648,11.264,250.624,8.192,248.576,6.656z"
			/>
	</g>
</g>
<g>
	<g>
		<path d="M175.872,31.232l-14.336-23.04c-1.536-2.56-4.608-3.072-7.168-1.536s-3.072,4.608-1.536,7.168l14.848,23.04
			c1.024,1.536,2.56,2.56,4.096,2.56c1.024,0,2.048,0,2.56-1.024C176.896,36.864,177.408,33.792,175.872,31.232z"/>
	</g>
</g>
<g>
</g>
<g>
</g>
<g>
</g>
<g>
</g>
<g>
</g>
<g>
</g>
<g>
</g>
<g>
</g>
<g>
</g>
<g>
</g>
<g>
</g>
<g>
</g>
<g>
</g>
<g>
</g>
<g>
</g>
</svg>
