<?xml version="1.0" encoding="iso-8859-1"?>
<!-- Generator: Adobe Illustrator 19.0.0, SVG Export Plug-In . SVG Version: 6.00 Build 0)  -->
<svg version="1.1" id="Capa_1" xmlns="http://www.w3.org/2000/svg" xmlns:xlink="http://www.w3.org/1999/xlink" x="0px" y="0px"
	 viewBox="0 0 417.28 417.28" style="fill: white; enable-background:new 0 0 417.28 417.28;" xml:space="preserve">
<g>
	<g>
		<path d="M208.042,0c-3.072,0-5.12,2.048-5.12,5.12l-0.512,26.112c0,2.56,2.048,5.12,5.12,5.12c2.56,0,5.12-2.048,5.12-5.12
			l0.512-26.112C213.162,2.048,211.114,0,208.042,0z"/>
	</g>
</g>
<g>
	<g>
		<path d="M247.466,23.552c-2.048-2.048-5.12-2.048-7.168,0l-18.944,17.92c-2.048,2.048-2.048,5.12,0,7.168
			c1.024,1.024,2.048,1.536,3.584,1.536c1.024,0,2.56-0.512,3.584-1.536l18.944-17.92C249.514,28.672,249.514,25.6,247.466,23.552z"
			/>
	</g>
</g>
<g>
	<g>
		<path d="M193.706,41.472L175.274,23.04c-2.048-2.048-5.12-2.048-7.168,0c-2.048,2.048-2.048,5.12,0,7.168l18.944,17.92
			c0.512,1.536,2.048,2.048,3.072,2.048c1.536,0,2.56-0.512,3.584-1.536C195.754,46.592,195.754,43.52,193.706,41.472z"/>
	</g>
</g>
<g>
	<g>
		<path d="M390.826,393.216c-0.512-2.56-3.584-4.608-6.144-3.584l-32.256,7.168l-28.16-115.712
			c13.312-6.144,23.04-22.016,27.648-46.592c4.608-25.6,2.56-57.344-5.12-90.112c-5.12-19.968-19.456-68.608-28.16-87.04
			c-1.024-2.048-3.584-3.072-5.632-2.56l-92.16,22.528c-2.56,0.512-4.096,2.56-4.096,5.12c0.512,20.48,10.24,70.144,15.36,90.112
			c15.872,64.512,50.176,110.592,80.896,110.592c0.512,0,1.024,0,2.048,0l27.648,115.712l-32.256,8.192
			c-2.56,0.512-4.608,3.584-3.584,6.144c0.512,2.56,2.56,4.096,5.12,4.096c0.512,0,1.024,0,1.024,0l74.24-17.92
			C389.802,398.848,391.85,395.776,390.826,393.216z M231.082,119.296c-2.048-12.8-4.096-24.576-4.608-33.28l83.968-20.48
			c3.584,8.192,7.68,19.968,11.776,32.256L231.082,119.296z M241.322,169.984c-2.048-9.216-5.632-24.576-8.704-40.448l92.16-22.016
			c4.608,15.36,8.704,30.208,10.752,38.912c7.68,31.232,9.728,61.44,5.12,86.016c-4.096,22.528-12.8,36.864-24.576,39.936
			C290.986,279.04,256.682,231.936,241.322,169.984z"/>
	</g>
</g>
<g>
	<g>
		<path d="M318.634,138.752c-0.512-2.56-3.584-4.608-6.144-3.584c-2.56,0.512-4.608,3.584-3.584,6.144
			c11.264,45.056,9.216,83.456,4.608,94.72c-1.024,2.56,0,5.632,2.56,6.656c0.512,0.512,1.536,0.512,2.048,0.512
			c2.048,0.512,4.096-1.024,4.608-3.072C328.362,226.816,330.41,186.88,318.634,138.752z"/>
	</g>
</g>
<g>
	<g>
		<path d="M196.778,77.312l-92.16-22.528c-2.56-0.512-4.608,0.512-5.632,2.56c-8.704,18.432-23.04,67.072-28.16,87.04
			c-8.192,32.256-9.728,64.512-5.12,90.112c4.096,24.064,13.824,40.448,27.648,46.592L64.682,396.8l-32.256-7.68
			c-2.56-0.512-5.632,1.024-6.144,3.584c-0.512,2.56,1.024,5.632,3.584,6.144l74.24,17.92c0.512,0,1.024,0,1.024,0
			c2.048,0,4.608-1.536,5.12-4.096c0.512-2.56-1.024-5.632-3.584-6.144l-32.256-7.68l28.16-115.712c0.512,0,1.536,0,2.048,0
			c14.848,0,29.696-9.728,44.032-28.16c15.872-20.48,28.672-49.664,36.864-82.432c5.12-19.968,14.848-70.144,15.36-90.112
			C200.874,79.872,199.338,77.824,196.778,77.312z M175.274,169.984c-7.68,31.232-19.968,58.88-34.816,78.336
			c-13.824,18.432-28.16,27.136-39.936,24.064c-11.776-3.072-20.48-17.408-24.576-39.936c-4.096-24.064-2.56-54.784,5.12-86.016
			c2.048-9.216,6.144-24.064,10.752-38.912l92.16,22.016C180.906,145.408,177.834,160.768,175.274,169.984z M186.026,119.296
			L94.89,97.792c4.096-12.288,8.192-24.064,11.776-32.256l83.968,20.48C190.122,94.72,188.074,106.496,186.026,119.296z"/>
	</g>
</g>
<g>
	<g>
		<path d="M104.618,135.168c-2.56-0.512-5.632,1.024-6.144,3.584c-11.776,48.128-9.216,88.576-4.096,101.376
			c1.024,2.048,2.56,3.072,4.608,3.072c0.512,0,1.536,0,2.048-0.512c2.56-1.024,4.096-4.096,2.56-6.656
			c-4.608-11.776-6.656-49.664,4.608-94.72C109.226,138.752,107.69,136.192,104.618,135.168z"/>
	</g>
</g>
<g>
	<g>
		<path d="M234.154,272.896c-10.24-4.096-20.992-1.024-29.184,7.68c-7.68-8.704-18.432-11.776-29.184-7.68
			c-12.288,4.608-22.528,19.456-18.432,38.912c7.68,31.744,44.544,48.128,46.592,48.64c0.512,0.512,1.024,0.512,1.536,0.512
			s1.536,0,2.048-0.512c1.536-0.512,38.4-16.896,45.056-48.64C256.682,292.864,246.442,278.016,234.154,272.896z M243.882,309.76
			c-5.12,22.528-29.696,36.864-37.376,40.448c-7.168-3.584-32.256-17.92-37.376-40.448c-3.584-14.336,3.584-24.064,11.264-27.136
			c2.048-0.512,3.584-1.024,5.632-1.024c5.632,0,11.264,3.584,15.36,10.24c1.024,1.536,2.56,2.56,4.608,2.56
			c2.048,0,3.584-1.024,4.608-2.56c5.12-8.704,12.8-12.288,20.992-9.216S246.442,295.424,243.882,309.76z"/>
	</g>
</g>
<g>
</g>
<g>
</g>
<g>
</g>
<g>
</g>
<g>
</g>
<g>
</g>
<g>
</g>
<g>
</g>
<g>
</g>
<g>
</g>
<g>
</g>
<g>
</g>
<g>
</g>
<g>
</g>
<g>
</g>
</svg>
