<?xml version="1.0" encoding="iso-8859-1"?>
<!-- Generator: Adobe Illustrator 19.0.0, SVG Export Plug-In . SVG Version: 6.00 Build 0)  -->
<svg version="1.1" id="Capa_1" xmlns="http://www.w3.org/2000/svg" xmlns:xlink="http://www.w3.org/1999/xlink" x="0px" y="0px"
	 viewBox="0 0 409.984 409.984" style="enable-background:new 0 0 409.984 409.984;" xml:space="preserve">
<g>
	<g>
		<path d="M380.259,184.704l-92.672-44.544V50.048l8.704,4.096c0.512,0.512,1.536,0.512,2.048,0.512
			c2.048,0,3.584-1.024,4.608-3.072c1.024-2.56,0-5.632-2.56-6.656L207.203,0.384c-1.536-0.512-3.072-0.512-4.608,0l-92.672,44.544
			c-2.56,1.024-3.584,4.096-2.56,6.656c1.024,2.56,4.096,3.584,6.656,2.56l8.704-4.096v90.624l-92.672,44.544
			c-2.56,1.024-3.584,4.096-2.56,6.656c1.024,2.56,4.096,3.584,6.656,2.56l31.744-15.36v225.792c0,3.072,2.048,5.12,5.12,5.12
			h267.264c3.072,0,5.12-2.048,5.12-5.12V179.072l31.744,15.36c0.512,0.512,1.536,0.512,2.048,0.512
			c2.048,0,3.584-1.024,4.608-3.072C383.843,189.312,382.819,186.24,380.259,184.704z M132.963,44.928h0.512l72.192-34.304
			l72.192,34.304v90.624l-70.656-33.28c-1.536-0.512-3.072-0.512-4.608,0l-69.632,33.28V44.928z M244.579,399.232h-78.848v-83.456
			c0-22.016,17.92-39.424,39.424-39.424c22.016,0,39.424,17.92,39.424,39.424V399.232z M333.667,175.488v224.256h-78.848v-83.968
			c0-27.648-22.528-49.664-49.664-49.664c-27.648,0-49.664,22.528-49.664,49.664v83.456H76.643V175.488c0-0.512,0-1.024-0.512-1.536
			l129.024-61.44l129.024,61.44C334.179,174.464,333.667,174.976,333.667,175.488z"/>
	</g>
</g>
<g>
	<g>
		<path d="M227.171,181.12h-16.896v-23.04c0-3.072-2.048-5.12-5.12-5.12c-2.56-0.512-5.12,2.048-5.12,4.608v23.04h-16.896
			c-3.072,0-5.12,2.048-5.12,5.12c0,3.072,2.048,5.12,5.12,5.12h16.896v37.376c0,3.072,2.048,5.12,5.12,5.12
			c3.072,0,5.12-2.048,5.12-5.12V191.36h16.896c3.072,0,5.12-2.048,5.12-5.12C232.291,183.168,230.243,181.12,227.171,181.12z"/>
	</g>
</g>
<g>
	<g>
		<path d="M206.179,39.296h-2.048c-10.752,0-19.456,8.704-19.456,19.456v24.576c0,3.072,2.048,5.12,5.12,5.12h30.72
			c3.072,0,5.12-2.56,5.12-5.12V58.752C225.635,48,216.931,39.296,206.179,39.296z M215.395,78.208h-20.48V58.752
			c0-5.12,4.096-9.216,9.216-9.216h2.048c5.12,0,9.216,4.096,9.216,9.216V78.208z"/>
	</g>
</g>
<g>
</g>
<g>
</g>
<g>
</g>
<g>
</g>
<g>
</g>
<g>
</g>
<g>
</g>
<g>
</g>
<g>
</g>
<g>
</g>
<g>
</g>
<g>
</g>
<g>
</g>
<g>
</g>
<g>
</g>
</svg>
