<?xml version="1.0" encoding="UTF-8" standalone="no"?>
<!-- Generator: Adobe Illustrator 19.0.0, SVG Export Plug-In . SVG Version: 6.00 Build 0)  -->

<svg
   xmlns:dc="http://purl.org/dc/elements/1.1/"
   xmlns:cc="http://creativecommons.org/ns#"
   xmlns:rdf="http://www.w3.org/1999/02/22-rdf-syntax-ns#"
   xmlns:svg="http://www.w3.org/2000/svg"
   xmlns="http://www.w3.org/2000/svg"
   xmlns:sodipodi="http://sodipodi.sourceforge.net/DTD/sodipodi-0.dtd"
   xmlns:inkscape="http://www.inkscape.org/namespaces/inkscape"
   version="1.1"
   id="Layer_1"
   x="0px"
   y="0px"
   viewBox="0 0 455 455"
   style="fill: white; enable-background:new 0 0 455 455;"
   xml:space="preserve"
   inkscape:version="0.91 r13725"
   sodipodi:docname="dish.svg"><metadata
     id="metadata53"><rdf:RDF><cc:Work
         rdf:about=""><dc:format>image/svg+xml</dc:format><dc:type
           rdf:resource="http://purl.org/dc/dcmitype/StillImage" /></cc:Work></rdf:RDF></metadata><defs
     id="defs51" /><sodipodi:namedview
     pagecolor="#ffffff"
     bordercolor="#666666"
     borderopacity="1"
     objecttolerance="10"
     gridtolerance="10"
     guidetolerance="10"
     inkscape:pageopacity="0"
     inkscape:pageshadow="2"
     inkscape:window-width="699"
     inkscape:window-height="480"
     id="namedview49"
     showgrid="false"
     inkscape:zoom="0.51868132"
     inkscape:cx="159.42975"
     inkscape:cy="163.99703"
     inkscape:window-x="0"
     inkscape:window-y="23"
     inkscape:window-maximized="0"
     inkscape:current-layer="Layer_1" /><g
     id="g3"
     style="fill:#3e5c61;fill-opacity:1"><g
       id="g5"
       style="fill:#3e5c61;fill-opacity:1"><g
         id="g7"
         style="fill:#3e5c61;fill-opacity:1"><path
           d="M55.5,92c-4.142,0-7.5,3.358-7.5,7.5V156h-9V99.5c0-4.142-3.358-7.5-7.5-7.5c-4.142,0-7.5,3.358-7.5,7.5V156h-9V99.5     c0-4.142-3.358-7.5-7.5-7.5S0,95.358,0,99.5v72C0,184.458,10.542,195,23.5,195H24v160.5c0,4.142,3.358,7.5,7.5,7.5     s7.5-3.358,7.5-7.5V195h0.5c12.958,0,23.5-10.542,23.5-23.5v-72C63,95.358,59.642,92,55.5,92z M48,171.5     c0,4.687-3.813,8.5-8.5,8.5h-16c-4.687,0-8.5-3.813-8.5-8.5V171h33V171.5z"
           id="path9"
           style="fill:#3e5c61;fill-opacity:1" /><path
           d="M439.101,92c-8.203,0-15.004,6.155-15.827,14.388l-13.665,150.995c-0.594,6.558,1.613,13.107,6.055,17.968     c4.441,4.861,10.765,7.649,17.349,7.649H440v72.5c0,4.142,3.358,7.5,7.5,7.5c4.142,0,7.5-3.358,7.5-7.5V107.899     C455,99.132,447.868,92,439.101,92z M440.001,268L440.001,268h-6.988c-2.417,0-4.645-0.982-6.275-2.767     c-1.63-1.784-2.408-4.093-2.19-6.5l13.659-150.924c0.046-0.461,0.431-0.81,0.895-0.81c0.496,0,0.899,0.403,0.899,0.899V268z"
           id="path11"
           style="fill:#3e5c61;fill-opacity:1" /><path
           d="M231.5,60C139.14,60,64,135.14,64,227.5S139.14,395,231.5,395S399,319.86,399,227.5S323.86,60,231.5,60z M231.5,380     C147.411,380,79,311.589,79,227.5S147.411,75,231.5,75S384,143.411,384,227.5S315.589,380,231.5,380z"
           id="path13"
           style="fill:#3e5c61;fill-opacity:1" /><path
           d="M231.5,116C170.019,116,120,166.019,120,227.5S170.019,339,231.5,339S343,288.981,343,227.5S292.981,116,231.5,116z      M231.5,324c-53.21,0-96.5-43.29-96.5-96.5c0-53.21,43.29-96.5,96.5-96.5c53.21,0,96.5,43.29,96.5,96.5     C328,280.71,284.71,324,231.5,324z"
           id="path15"
           style="fill:#3e5c61;fill-opacity:1" /><path
           d="M231.5,140c-48.248,0-87.5,39.252-87.5,87.5s39.252,87.5,87.5,87.5s87.5-39.252,87.5-87.5S279.748,140,231.5,140z      M231.5,300c-39.977,0-72.5-32.523-72.5-72.5s32.523-72.5,72.5-72.5s72.5,32.523,72.5,72.5S271.477,300,231.5,300z"
           id="path17"
           style="fill:#3e5c61;fill-opacity:1" /></g></g></g><g
     id="g19" /><g
     id="g21" /><g
     id="g23" /><g
     id="g25" /><g
     id="g27" /><g
     id="g29" /><g
     id="g31" /><g
     id="g33" /><g
     id="g35" /><g
     id="g37" /><g
     id="g39" /><g
     id="g41" /><g
     id="g43" /><g
     id="g45" /><g
     id="g47" /></svg>