<?xml version="1.0" encoding="iso-8859-1"?>
<!-- Generator: Adobe Illustrator 19.0.0, SVG Export Plug-In . SVG Version: 6.00 Build 0)  -->
<svg version="1.1" id="Capa_1" xmlns="http://www.w3.org/2000/svg" xmlns:xlink="http://www.w3.org/1999/xlink" x="0px" y="0px"
	 viewBox="0 0 406.603 406.603" style="fill: white; enable-background:new 0 0 406.603 406.603;" xml:space="preserve">
<g>
	<g>
		<path d="M364.31,3.147c-19.456-7.168-38.912-0.512-52.224,16.896c-13.312-17.92-33.28-24.576-52.224-16.896
			c-20.992,8.192-38.912,33.792-31.744,67.072c12.288,56.832,78.848,86.528,81.92,87.552c0.512,0.512,1.536,0.512,2.048,0.512
			c0.512,0,1.536,0,2.048-0.512c3.072-1.024,69.632-30.72,81.92-87.552C403.222,36.939,385.814,11.339,364.31,3.147z
			 M386.326,68.171c-10.24,46.592-62.976,74.24-74.24,79.36c-11.264-5.12-64-32.768-74.24-79.36
			c-6.144-27.648,8.192-49.152,25.088-55.808c3.584-1.536,7.68-2.048,11.776-2.048c11.264,0,23.04,5.632,32.256,21.504
			c1.024,1.536,2.56,2.56,4.608,2.56c2.048,0,3.584-1.024,4.608-2.56c12.8-22.016,31.232-24.576,44.544-19.456
			C378.134,19.019,391.958,40.523,386.326,68.171z"/>
	</g>
</g>
<g>
	<g>
		<path d="M146.71,242.763c-19.456-7.168-38.912-0.512-52.224,16.896c-13.312-17.92-33.28-24.576-52.224-16.896
			c-20.992,8.192-38.912,33.792-31.744,67.072c12.288,56.832,79.36,86.528,81.92,87.552c0.512,0.512,1.536,0.512,2.048,0.512
			c0.512,0,1.536,0,2.048-0.512c3.072-1.024,69.632-30.72,81.92-87.552C185.622,276.555,167.702,250.955,146.71,242.763z
			 M168.214,307.787c-10.24,46.592-62.976,74.24-74.24,79.36c-11.264-5.12-64-32.768-74.24-79.36
			c-6.144-27.648,8.192-49.152,25.088-55.808c3.584-1.536,7.68-2.048,11.776-2.048c11.264,0,23.04,5.632,32.256,21.504
			c1.024,1.536,2.56,2.56,4.608,2.56c2.048,0,3.584-1.024,4.608-2.56c12.8-22.016,31.232-24.576,44.544-19.456
			C160.022,259.147,174.358,280.139,168.214,307.787z"/>
	</g>
</g>
<g>
	<g>
		<path d="M220.438,106.059c-16.384-6.144-32.768-1.024-44.544,13.824c-11.264-14.336-28.16-19.968-44.544-13.824
			c-17.92,7.168-33.28,28.672-27.136,57.344c10.24,48.128,67.072,73.216,69.12,74.24c0.512,0.512,1.536,0.512,2.048,0.512
			c0.512,0,1.536,0,2.048-0.512c2.56-1.024,58.88-26.112,69.12-74.24C253.206,134.731,238.358,112.715,220.438,106.059z
			 M237.334,160.843c-8.192,37.888-51.2,60.928-61.44,66.048c-9.728-4.608-53.248-27.648-61.44-66.048
			c-5.12-23.04,6.656-40.448,20.48-45.568c3.072-1.024,6.144-2.048,9.728-2.048c9.216,0,18.944,4.608,26.624,17.92
			c1.024,1.536,2.56,2.56,4.608,2.56c2.048,0,3.584-1.024,4.608-2.56c10.24-17.92,25.6-19.968,36.352-15.872
			C230.678,120.907,241.942,138.315,237.334,160.843z"/>
	</g>
</g>
<g>
	<g>
		<path d="M108.822,20.043c-12.288-4.608-24.576-1.024-33.792,9.216c-8.704-10.24-21.504-14.336-33.792-9.216
			c-13.824,5.632-25.6,22.528-20.992,44.544c7.68,36.864,50.688,55.808,52.736,56.32c0.512,0.512,1.536,0.512,2.048,0.512
			c0.512,0,1.536,0,2.048-0.512c2.048-1.024,44.544-19.968,52.736-56.32C134.422,42.571,122.646,25.675,108.822,20.043z
			 M120.086,62.027c-6.144,27.136-36.352,44.032-44.544,48.128c-8.192-4.096-38.912-20.992-44.544-48.128
			c-3.584-16.384,4.608-29.184,14.848-32.768c2.56-1.024,4.608-1.536,7.168-1.536c7.168,0,13.824,4.608,18.432,12.8
			c2.048,3.072,7.168,3.072,8.704,0c6.144-10.752,15.872-14.848,25.6-11.264C114.966,33.355,123.67,45.643,120.086,62.027z"/>
	</g>
</g>
<g>
	<g>
		<path d="M342.806,279.627c-15.36-6.144-31.232-1.024-42.496,12.8c-10.752-13.824-27.136-18.944-42.496-12.8
			c-17.408,6.656-31.744,27.648-26.112,55.296c9.728,46.08,64,70.144,66.56,71.168c0.512,0.512,1.536,0.512,2.048,0.512
			c0.512,0,1.536,0,2.048-0.512c2.048-1.024,56.32-25.088,66.56-71.168C375.062,307.275,360.214,286.283,342.806,279.627z
			 M359.19,332.875c-7.68,36.352-48.64,57.856-58.368,62.976c-9.728-5.12-50.688-27.136-58.368-62.976
			c-4.608-21.504,6.144-38.4,19.456-43.52c2.56-1.024,6.144-1.536,9.216-1.536c8.704,0,17.92,4.608,25.088,16.896
			c1.024,1.536,2.56,2.56,4.608,2.56c2.048,0,3.584-1.024,4.608-2.56c9.728-16.896,24.064-18.944,34.304-14.848
			C352.534,294.475,363.798,310.859,359.19,332.875z"/>
	</g>
</g>
<g>
	<g>
		<path d="M345.366,171.083c-10.752-4.096-22.016-1.024-29.696,7.68c-7.68-8.704-18.944-12.288-29.696-7.68
			c-12.8,4.608-23.04,19.968-18.944,39.936c7.168,32.768,45.056,49.664,46.592,50.176c0.512,0.512,1.536,0.512,2.048,0.512
			c0.512,0,1.536,0,2.048-0.512c1.536-0.512,39.424-17.408,46.592-50.176C368.406,191.563,358.166,176.203,345.366,171.083z
			 M354.07,209.483c-5.12,23.552-31.232,37.888-38.4,41.472c-7.68-3.584-33.28-18.432-38.4-41.472
			c-3.072-14.336,4.096-25.088,12.288-28.16c2.048-0.512,4.096-1.024,5.632-1.024c6.144,0,11.776,3.584,15.872,10.752
			c1.024,1.536,2.56,2.56,4.608,2.56s3.584-1.024,4.608-2.56c5.12-9.216,13.312-12.8,21.504-9.728
			C349.974,184.395,357.654,194.635,354.07,209.483z"/>
	</g>
</g>
</svg>
