<?xml version="1.0" encoding="iso-8859-1"?>
<!-- Generator: Adobe Illustrator 19.0.0, SVG Export Plug-In . SVG Version: 6.00 Build 0)  -->
<svg version="1.1" id="Capa_1" xmlns="http://www.w3.org/2000/svg" xmlns:xlink="http://www.w3.org/1999/xlink" x="0px" y="0px"
	 viewBox="0 0 402.944 402.944" style="fill: white; enable-background:new 0 0 402.944 402.944;" xml:space="preserve">
<g>
	<g>
		<path d="M363.008,39.936c-52.736-53.248-139.264-53.248-192,0c-24.576,24.576-38.4,56.832-39.936,91.136
			c-34.304,1.024-66.56,15.36-91.136,39.936c-53.248,53.248-53.248,139.264,0,192c25.6,25.6,59.904,39.936,96.256,39.936
			s70.656-14.336,96.256-39.936c25.088-25.088,38.4-57.856,39.424-91.136c34.304-1.024,66.56-15.36,91.136-39.936
			C416.256,178.688,416.256,92.672,363.008,39.936z M134.144,163.84c5.12,26.112,17.92,49.664,36.864,68.608
			c19.456,19.456,43.52,32.256,70.656,37.376c-0.512,26.112-10.752,52.224-30.72,71.68c-40.96,40.96-108.032,40.96-148.992,0
			c-40.96-40.96-40.96-108.032,0-148.992c19.456-19.456,44.544-30.208,71.68-30.72C133.632,162.816,134.144,163.328,134.144,163.84z
			 M225.28,355.84c-23.552,23.552-55.296,36.864-89.088,36.864c-33.792,0-65.024-13.312-89.088-36.864
			c-49.152-49.152-49.152-128.512,0-177.664c22.528-22.528,52.224-35.328,83.968-36.864c0,3.072,0.512,6.656,1.024,10.24
			c-29.184,1.024-56.832,12.8-77.824,33.792c-45.056,45.056-45.056,118.272,0,163.328c22.528,22.528,52.224,33.792,81.92,33.792
			c29.696,0,59.392-11.264,81.92-33.792s33.792-52.736,33.792-82.432c0-0.512,0-1.536,0-2.048
			c-0.512-28.672-11.776-56.832-33.792-78.848c-14.848-14.848-32.768-25.088-52.736-30.208c-0.512,0-1.024,0-1.536,0
			c-0.512-3.072-1.024-7.168-1.536-10.752c24.064,5.12,45.568,16.384,62.976,34.304c19.968,19.968,31.744,45.568,35.328,71.68
			c0.512,2.048,0.512,4.608,1.024,6.656C264.192,291.84,252.416,328.704,225.28,355.84z M237.056,237.056
			c-16.896-5.12-32.256-13.824-44.544-26.624c-12.288-12.288-21.504-27.648-26.624-44.544c16.896,5.12,32.256,13.824,44.544,26.624
			C223.744,205.312,232.448,220.672,237.056,237.056z M232.448,170.496c-19.456-19.456-43.52-32.256-70.144-37.376
			c0.512-27.136,11.264-52.736,30.72-71.68c40.96-40.96,108.032-40.96,148.992,0c40.96,40.96,40.96,108.032,0,148.992
			c-19.456,19.456-44.544,30.208-71.68,30.72C264.704,215.552,252.416,190.464,232.448,170.496z M355.84,224.768
			c-22.528,22.528-52.224,35.328-83.968,36.864c0-0.512,0-0.512,0-1.024c0-3.072-0.512-6.144-0.512-9.216
			c29.184-1.024,56.832-12.8,77.312-33.792c45.056-45.056,45.056-118.272,0-163.328c-45.056-45.056-118.272-45.056-163.328,0
			c-22.016,22.016-34.304,51.712-33.792,83.456c-0.512,12.288,3.584,27.648,4.096,28.672c5.12,19.456,15.36,37.376,29.696,51.712
			c14.848,14.848,33.792,25.6,53.76,30.72h0.512c0.512,3.584,1.024,7.168,1.536,10.752c-24.064-5.12-45.568-16.384-62.976-33.792
			s-29.184-39.424-34.304-62.976c-1.024-5.12-3.072-19.456-2.56-25.6c0-33.792,13.312-65.024,36.864-89.088
			c49.152-49.152,128.512-49.152,177.664,0C404.992,96.256,404.992,176.128,355.84,224.768z"/>
	</g>
</g>

</svg>
