<?xml version="1.0" encoding="iso-8859-1"?>
<!-- Generator: Adobe Illustrator 19.0.0, SVG Export Plug-In . SVG Version: 6.00 Build 0)  -->
<svg version="1.1" id="Capa_1" xmlns="http://www.w3.org/2000/svg" xmlns:xlink="http://www.w3.org/1999/xlink" x="0px" y="0px"
	 viewBox="0 0 394.633 394.633" style="enable-background:new 0 0 394.633 394.633;" xml:space="preserve">
<g>
	<g>
		<path d="M67.977,97.971c-1.536-0.512-1.536-1.024-2.048-1.024l-7.168-1.024l-3.072-6.656c0-0.512-0.512-0.512-1.024-0.512
			c-0.512,0-1.024,0.512-1.024,0.512l-3.584,6.656l-7.168,1.024c-0.512,0-1.024,0.512-1.024,1.024s0,1.024,0.512,1.536l5.12,5.12
			l-1.536,7.168c0,0.512,0,1.024,0.512,1.024c0.512,0.512,1.024,0.512,1.536,0l6.656-3.584l6.656,3.584h0.512
			c0.512,0,0.512,0,0.512,0c0.512-0.512,0.512-0.512,0.512-1.024l-1.024-7.168l5.632-5.12
			C67.977,98.995,67.977,98.483,67.977,97.971z"/>
	</g>
</g>
<g>
	<g>
		<path d="M55.177,144.563l-11.776-7.68l-0.512-13.312c0-0.512-0.512-1.024-0.512-1.024c-0.512,0-1.024,0-1.536,0l-10.24,8.704
			l-12.8-3.584c-0.512,0-1.024,0-1.536,0.512c-0.512,0.512-0.512,1.024,0,1.536l5.12,12.288l-7.168,11.264
			c-0.512,0.512-0.512,1.024,0,1.536c0,0.512,0.512,0.512,1.024,0.512l13.312-1.024l8.192,10.24c0,0.512,0.512,0.512,1.024,0.512
			c0,0,0,0,0.512,0c0.512,0,1.024-0.512,1.024-1.024l2.56-12.8l12.8-4.608c0.512,0,1.024-0.512,1.024-1.024
			C55.689,145.075,55.689,144.563,55.177,144.563z"/>
	</g>
</g>
<g>
	<g>
		<path d="M376.713,197.811l-12.288-7.68l-0.512-13.312c0-0.512-0.512-1.024-0.512-1.024c-0.512,0-1.024,0-1.536,0l-10.24,8.704
			l-12.8-3.584c-0.512,0-1.024,0-1.536,0.512c-0.512,0.512-0.512,1.024,0,1.536l5.12,12.288l-7.168,11.264
			c-0.512,0.512-0.512,1.024,0,1.536c0,0.512,0.512,0.512,1.024,0.512l13.312-1.024l8.192,10.24c0,0.512,0.512,0.512,1.024,0.512
			c0,0,0,0,0.512,0c0.512,0,1.024-0.512,1.024-1.024l3.072-12.8l12.8-4.608c0.512,0,1.024-0.512,1.024-1.024
			C377.225,198.323,377.225,197.811,376.713,197.811z"/>
	</g>
</g>
<g>
	<g>
		<path d="M300.937,54.451h-189.44c-3.072,0-5.12,2.048-5.12,5.12v309.76c0,3.072,2.048,5.12,5.12,5.12h189.44
			c3.072,0,5.12-2.048,5.12-5.12V59.571C306.057,57.011,303.497,54.451,300.937,54.451z M295.817,364.211h-179.2V64.691h179.2
			V364.211z"/>
	</g>
</g>
<g>
	<g>
		<path d="M206.217,192.179c-40.96,0-74.24,33.28-74.24,74.24s33.28,74.24,74.24,74.24c40.96,0,74.24-33.28,74.24-74.24
			S247.177,192.179,206.217,192.179z M206.217,330.419c-35.328,0-64-28.672-64-64s28.672-64,64-64c35.328,0,64,28.672,64,64
			S241.545,330.419,206.217,330.419z"/>
	</g>
</g>
<g>
	<g>
		<path d="M206.217,82.099c-28.16,0-51.2,23.04-51.2,51.2c0,28.16,23.04,51.2,51.2,51.2c28.16,0,51.2-23.04,51.2-51.2
			C257.417,105.139,234.377,82.099,206.217,82.099z M206.217,174.259c-22.528,0-40.96-18.432-40.96-40.96s18.432-40.96,40.96-40.96
			c22.528,0,40.96,18.432,40.96,40.96S228.745,174.259,206.217,174.259z"/>
	</g>
</g>
<g>
	<g>
		<path d="M206.217,115.891c-9.728,0-17.408,7.68-17.408,17.408s7.68,17.408,17.408,17.408c9.728,0,17.408-7.68,17.408-17.408
			S215.945,115.891,206.217,115.891z M206.217,140.467c-4.096,0-7.168-3.072-7.168-7.168s3.072-7.168,7.168-7.168
			c4.096,0,7.168,3.072,7.168,7.168S210.313,140.467,206.217,140.467z"/>
	</g>
</g>
<g>
	<g>
		<path d="M206.217,244.403c-12.288,0-22.016,9.728-22.016,22.016c0,12.288,9.728,22.016,22.016,22.016
			c12.288,0,22.016-9.728,22.016-22.016C228.233,254.131,218.505,244.403,206.217,244.403z M206.217,278.195
			c-6.656,0-11.776-5.12-11.776-11.776s5.12-11.776,11.776-11.776c6.656,0,11.776,5.12,11.776,11.776
			S212.873,278.195,206.217,278.195z"/>
	</g>
</g>
<g>
	<g>
		<path d="M391.049,115.891v-0.512l-16.384-36.352c1.024,0,2.048,0,3.584,0c5.632,0,10.24-1.024,12.8-4.096
			c3.584-3.072,3.584-7.168,3.584-7.68c0-3.072-2.048-5.12-5.12-5.12c-2.56,0-5.12,2.048-5.12,5.12l-0.512,0.512
			c-0.512,0.512-2.048,1.536-5.632,1.024c-9.728-0.512-13.312,0.512-15.36,4.096c-1.024,1.536-1.024,3.584,0,5.12l14.336,32.256
			c-0.512,0-1.024,0.512-1.536,0.512c-6.144,2.56-8.704,9.728-6.144,15.872c2.56,6.144,9.728,8.704,15.872,6.144
			s8.704-9.728,6.144-15.872C391.561,116.403,391.049,116.403,391.049,115.891z"/>
	</g>
</g>
<g>
	<g>
		<path d="M371.593,25.267c-2.56-1.536-5.632-0.512-7.168,1.536h-0.512c-0.512,0-2.048,0-5.632-1.536
			c-8.192-5.12-12.288-6.144-15.36-4.096c-1.536,1.024-2.56,2.56-2.56,4.096l-3.584,35.328c-0.512,0-1.024-0.512-2.048-0.512
			c-6.656-0.512-12.288,4.096-13.312,10.752c-0.512,6.656,4.096,12.288,10.752,13.312c6.656,1.024,12.8-3.584,13.312-10.24
			c0-0.512,0-0.512,0-1.024v-0.512l4.096-39.424c1.024,0.512,1.536,1.024,3.072,1.536c4.608,3.072,9.216,4.096,13.312,3.072
			c4.608-1.024,6.656-4.096,7.168-5.12C374.665,29.875,373.641,26.803,371.593,25.267z"/>
	</g>
</g>
<g>
	<g>
		<path d="M61.321,32.947c-2.048-2.048-5.12-2.048-7.168-0.512c-1.024,0.512-3.072,0-5.632-3.072
			c-6.656-7.168-9.728-9.216-13.312-8.192c-1.536,0.512-3.072,1.536-3.584,3.072L18.313,57.011
			c-0.512-0.512-1.024-0.512-1.536-1.024c-6.144-2.56-13.312,0.512-15.872,6.656s0.512,13.312,6.656,15.872
			c6.144,2.048,13.312-0.512,15.872-7.168v-0.512l0.512-0.512l14.848-36.864c0.512,0.512,1.536,1.536,2.048,2.56
			c3.584,4.096,7.68,6.144,11.776,6.656c4.608,0.512,7.68-2.048,8.192-2.56C62.857,38.067,62.857,34.995,61.321,32.947z"/>
	</g>
</g>
<g>
</g>
<g>
</g>
<g>
</g>
<g>
</g>
<g>
</g>
<g>
</g>
<g>
</g>
<g>
</g>
<g>
</g>
<g>
</g>
<g>
</g>
<g>
</g>
<g>
</g>
<g>
</g>
<g>
</g>
</svg>
