<svg version="1" xmlns="http://www.w3.org/2000/svg" width="933.333" height="933.333" viewBox="0 0 700.000000 700.000000"><path d="M181.7 43.6c-.1.1-3.1.5-6.7.8-39.8 4-79.1 25-114.9 61.6-30.2 30.9-51.2 72-57.2 112.1-.6 4.1-1.3 8.7-1.5 10.4-.8 5.2-1.1 38.8-.3 43.5.4 2.5 1 7 1.4 10 1.7 14.8 10 42.3 17.4 57.7C34.6 370.1 48.8 387.2 88 422c10.2 9 19.2 17.1 20.1 17.9.9.9 3.1 3 5 4.6 6.9 6.2 23.5 21.1 26.9 24.2 1.9 1.7 4.4 4 5.6 5 4.4 3.8 19.1 17 24.4 21.9 3 2.8 10.2 9.3 16 14.4 10.7 9.5 22.5 20.1 33.5 30 3.3 3 9.8 8.9 14.4 13s9.4 8.4 10.5 9.5c1.2 1.1 6 5.3 10.6 9.4 4.7 4.1 9.4 8.4 10.6 9.5 1.8 1.7 11.3 10.3 18.4 16.6 5 4.4 18.1 16.1 22.9 20.6 3.1 2.8 7.4 6.6 9.6 8.5 2.2 1.9 4.7 4.1 5.5 5 .8.9 5.5 5.1 10.4 9.5 4.9 4.3 10.6 9.4 12.5 11.1 2 1.8 4 3.3 4.4 3.3.4 0 2.6-1.7 4.9-3.8 7.7-7 9.3-8.4 15.2-13.5 7.7-6.7 42.6-37.7 49.1-43.6 6.2-5.6 12.7-11.5 22.4-20.1 4-3.6 8.3-7.4 9.5-8.5 4.5-4 18.8-16.9 52.1-46.5 18.7-16.7 38.5-34.4 44-39.4 9.2-8.3 16.4-14.7 32-28.7 6.1-5.4 11.9-10.6 13.9-12.4.6-.6 5.2-4.6 10.1-9 5-4.4 9.2-8.2 9.5-8.5.3-.3 6.5-5.9 13.9-12.5s15.6-14.3 18.2-17c28.2-29.8 46.5-67.3 53.5-109.5 3-17.6 2.4-50.9-1.1-70-4.5-24.1-16.5-53.7-30.2-74.5-26-39.4-68.7-73.7-107.8-86.7-15.5-5.1-26.5-6.9-44-7.4-22-.5-34 1.2-54.4 7.7-33.5 10.7-73.4 34.8-104.6 63.2-5.1 4.6-6.1 4.8-9.7 1.5-13.5-12.8-43.3-34.7-59.3-43.9-8.7-4.9-20.6-10.9-26.6-13.4-3.5-1.4-7.3-3-8.4-3.6-2.3-1.1-19.3-6.6-22.7-7.4-10.1-2.2-18.3-3.6-24.3-4.1-6.7-.6-22.5-1.1-22.8-.8z"/></svg>